<?xml version="1.0" encoding="UTF-8" standalone="no"?>
<svg
   version="1.1"
   x="0px"
   y="0px"
   viewBox="4.106 5.67 18.897634 28.346455"
   enable-background="new 4.106 5.67 88.622 88.66"
   xml:space="preserve"
   id="svg1"
   sodipodi:docname="Logo_v4.svg"
   inkscape:version="1.4.2 (ebf0e940d0, 2025-05-08)"
   width="18.897638"
   height="28.346457"
   inkscape:export-filename="../Logo_v4.svg"
   inkscape:export-xdpi="300"
   inkscape:export-ydpi="300"
   xmlns:inkscape="http://www.inkscape.org/namespaces/inkscape"
   xmlns:sodipodi="http://sodipodi.sourceforge.net/DTD/sodipodi-0.dtd"
   xmlns="http://www.w3.org/2000/svg"
   xmlns:svg="http://www.w3.org/2000/svg"><defs
     id="defs1" /><sodipodi:namedview
     id="namedview1"
     pagecolor="#ffffff"
     bordercolor="#000000"
     borderopacity="0.25"
     inkscape:showpageshadow="2"
     inkscape:pageopacity="0.0"
     inkscape:pagecheckerboard="0"
     inkscape:deskcolor="#d1d1d1"
     inkscape:zoom="26.334528"
     inkscape:cx="5.8478359"
     inkscape:cy="10.556483"
     inkscape:window-width="1920"
     inkscape:window-height="1008"
     inkscape:window-x="0"
     inkscape:window-y="0"
     inkscape:window-maximized="1"
     inkscape:current-layer="g76-2-6"
     inkscape:export-bgcolor="#ffffff00"><inkscape:page
       x="0"
       y="0"
       width="18.897635"
       height="28.346455"
       id="page2"
       margin="0"
       bleed="0" /></sodipodi:namedview><circle
     style="opacity:1;fill:#ffffff;fill-opacity:1;stroke:none;stroke-width:5.66929;stroke-linecap:round;stroke-dasharray:none;stroke-opacity:1"
     id="path117"
     cx="13.554819"
     cy="19.843227"
     r="9.4488192" /><rect
     style="opacity:1;fill:none;fill-opacity:1;stroke:none;stroke-width:4.87947;stroke-linecap:round;stroke-dasharray:none;stroke-opacity:1"
     id="rect117"
     width="18.897638"
     height="28.346457"
     x="4.1059999"
     y="5.6700001" /><g
     id="g76-2-6"
     transform="matrix(0.23093115,0,0,0.22987392,3.0731356,8.966317)"
     inkscape:export-filename="/home/felix/travelblog/favicon.png"
     inkscape:export-xdpi="4800"
     inkscape:export-ydpi="4800"><g
       id="g2"
       transform="translate(56.252512,-8.838854)"><path
         style="display:inline;opacity:0.5;fill:#ee9b00;fill-opacity:1;stroke:none;stroke-width:6.80005;stroke-dasharray:none;stroke-dashoffset:0;stroke-opacity:1"
         id="path72-6-9-3-2"
         sodipodi:type="arc"
         sodipodi:cx="-10.853451"
         sodipodi:cy="56.155716"
         sodipodi:rx="40.926453"
         sodipodi:ry="40.926453"
         sodipodi:start="1.5707963"
         sodipodi:end="4.712389"
         sodipodi:arc-type="arc"
         d="m -10.853451,97.082169 a 40.926453,40.926453 0 0 1 -35.443347,-20.463226 40.926453,40.926453 0 0 1 0,-40.926454 40.926453,40.926453 0 0 1 35.443347,-20.463226"
         sodipodi:open="true" /><path
         style="display:inline;opacity:0.5;fill:#0a9396;fill-opacity:1;stroke:none;stroke-width:6.80005;stroke-dasharray:none;stroke-dashoffset:0;stroke-opacity:1"
         id="path72-6-9-3-1-2"
         sodipodi:type="arc"
         sodipodi:cx="10.874009"
         sodipodi:cy="56.155716"
         sodipodi:rx="40.926453"
         sodipodi:ry="40.926453"
         sodipodi:start="1.5707963"
         sodipodi:end="4.712389"
         sodipodi:arc-type="arc"
         d="m 10.874009,97.082169 a 40.926453,40.926453 0 0 1 -35.443347,-20.463226 40.926453,40.926453 0 0 1 0,-40.926454 40.926453,40.926453 0 0 1 35.443347,-20.463226"
         sodipodi:open="true"
         transform="scale(-1,1)" /></g><g
       id="g117"
       transform="translate(56.252512,-8.8388541)"><path
         id="path72-6-9-3"
         style="display:inline;opacity:1;fill:#ee9b00;fill-opacity:1;stroke:none;stroke-width:6.80005;stroke-dasharray:none;stroke-dashoffset:0;stroke-opacity:1"
         d="m -10.92046,15.22763 c -1.792266,0.0029 -3.555745,0.124002 -5.285978,0.35417 a 40.926453,40.926453 0 0 0 -0.0089,0 c -0.963045,0.128322 -1.888298,0.367857 -2.828928,0.562243 a 40.926453,40.926453 0 0 0 -2.085172,0.420577 c 0.140188,1.285997 -1.655856,0.637271 -2.293247,1.146623 0.978517,2.912185 7.144931,1.425114 5.352385,6.499008 0.06729,0.344864 0.423286,0.389043 0.624224,0.247919 0.04206,-0.08879 0.0877,-0.174089 0.13724,-0.247919 -0.0019,0.109347 -0.05873,0.190904 -0.13724,0.247919 -0.820571,1.727124 -0.296649,6.227498 2.430487,7.012554 1.087863,-0.695336 1.471496,-2.098625 2.297674,-3.054711 0.472428,-0.693483 1.121657,-1.209807 1.863817,-1.633606 V 15.22763 c -0.02165,0 -0.04476,-3.4e-5 -0.06641,0 z m -12.967027,2.22684 a 40.926453,40.926453 0 0 0 -0.602088,0.203648 c -1.409457,0.5045 -2.78912,1.071039 -4.121647,1.722148 a 40.926453,40.926453 0 0 0 -0.517972,0.256773 c 0.481292,0.01542 1.02779,-0.03685 1.496365,-0.0089 -0.855489,0.746492 -1.486764,0.619147 -2.240121,0.376305 a 40.926453,40.926453 0 0 0 -0.58438,0.287763 c -0.237075,0.132979 -0.477155,0.261222 -0.712765,0.39844 1.128051,0.429916 2.521582,0.253525 4.307585,0.07969 0.746076,-1.350955 1.654464,-2.538609 2.975023,-3.315911 z m -7.866988,3.572684 c -0.21271,0.127523 -0.419595,0.264586 -0.628651,0.398441 a 40.926453,40.926453 0 0 0 -0.513545,0.345315 c -0.06501,0.259022 -0.188286,0.548089 -0.464848,0.911986 1.134593,-0.140188 1.8867,-0.665417 2.293247,-1.531783 -0.436454,0.167292 -0.600219,0.06016 -0.686203,-0.123959 z m 4.891965,0.128386 c -1.359829,0.806552 -4.533226,-0.201529 -4.586494,1.912515 -0.287853,1.306558 1.553172,0.482837 1.146624,1.908088 -0.340191,0.167292 -0.684579,0.336915 -0.765892,0.765891 -0.484118,-1.478522 -1.721169,-0.495447 -1.908087,-2.673979 -0.6187,-0.108412 -0.658767,0.36017 -1.146624,0.380732 -0.316826,1.078518 0.537743,0.988451 0.380732,1.908088 -1.531681,-1.902715 -1.643178,1.128488 -4.188053,0.389586 -5.283393,4.762798 -9.379477,10.814125 -11.590193,17.757168 0.113085,3.889767 1.080134,7.987076 3.740914,10.585238 -0.06449,-1.070107 -0.693483,-1.571948 -0.757037,-2.642989 1.226182,0.788795 2.000661,2.03087 1.890379,4.157063 3.943039,2.857979 9.344385,4.263611 12.094885,8.314127 -0.414958,1.09721 -1.209061,1.816565 -1.890379,2.647416 -1.069171,5.041183 4.953617,7.479522 5.66671,11.714153 0.915899,5.434645 -1.618665,10.93402 -0.101824,13.91443 0.956087,0.473838 1.930985,0.910422 2.926325,1.310427 0.627109,-3.109383 -0.244921,-5.494277 3.67008,-6.600832 0.317761,-1.082257 -0.536808,-0.991008 -0.380732,-1.912515 2.200027,0.582249 3.851552,-2.454112 4.205762,-4.967226 1.025246,-0.501876 2.031087,-1.02361 3.059138,-1.527355 -0.05233,-4.000983 2.314162,-5.584848 2.673979,-9.177415 -2.516852,-0.920572 -4.534026,-2.344423 -7.2649,-3.054711 v -1.912515 c -1.528991,-1.401886 -4.430771,-1.430608 -4.967226,-3.825029 -2.50003,-0.02617 -4.11114,-0.352221 -4.967225,-1.146623 -1.425252,0.231779 -1.558186,1.757372 -3.059139,1.912514 -0.0093,-0.371972 -0.468691,-0.299175 -0.765891,-0.385159 -1.957968,-0.281312 -1.254101,-1.741965 -1.146623,-3.435443 -0.555147,-0.207479 -1.972576,0.445693 -1.908088,-0.385159 -0.05795,-0.948609 0.195102,-1.587276 0.761464,-1.912515 -0.194395,-1.329922 -2.431567,-0.827004 -2.293247,0.385159 h -0.380732 c -5.956147,-1.378521 0.344859,-7.749964 3.820603,-5.733117 0.294396,1.107491 0.607472,2.195468 1.531782,2.673979 1.139266,-0.7673 -0.429559,-3.098744 0.380732,-3.43987 0.49066,-0.655148 0.79194,-1.503058 1.912515,-1.527356 0.704681,-4.348651 5.442694,-5.708452 7.260473,-6.884167 v -0.380732 c -0.0084,-0.371972 -0.465199,-0.295684 -0.761464,-0.380733 -0.233648,-0.0215 -0.456187,-0.05992 -0.38516,-0.385159 -0.156077,-0.920573 0.701051,-0.828635 0.38516,-1.908087 1.232725,1.607496 2.379463,-0.40327 3.820602,-0.765892 -0.214956,0.550474 -0.597084,0.932602 -1.146623,1.146624 -0.270097,0.283181 -0.955733,1.872908 0.380732,1.531782 0.900011,-0.0093 1.125008,0.65737 2.293247,0.380732 -0.545801,-3.407519 -2.623393,-5.223987 -3.820603,-8.792255 -1.238334,-0.471034 -0.294383,1.238794 -1.531782,0.765891 -1.321511,0.04766 -0.556315,-1.994866 -1.527356,-2.297673 -1.385998,0.245798 -1.917542,-0.794181 -2.293247,-0.761465 -0.02056,0.232713 -0.0555,0.44989 -0.380732,0.380732 0.130843,4.981368 -0.989492,4.191965 -2.293247,7.2649 0.0093,-0.900946 -0.661798,-1.124073 -0.385159,-2.293247 -0.526174,0.01776 -0.838208,-0.177925 -1.146623,-0.380732 -1.274782,-0.507483 -2.731097,-0.837154 -3.059139,-2.293247 1.11964,-1.30095 2.009366,-2.836813 3.820603,-3.444297 -0.285984,0.970105 1.462624,1.792425 1.531782,1.146623 -0.385051,-0.0037 -0.481314,-0.666135 0,-0.761464 0.527109,-0.01589 0.843571,0.17886 1.151051,0.380732 0.06449,-0.956086 -0.590297,-1.195576 -1.151051,-1.527355 0.432716,-0.969171 1.845805,-0.964366 1.531783,-2.678406 -0.209304,-0.0906 -0.308192,-0.166432 -0.32318,-0.221356 -3.43e-4,-0.0024 1.1e-5,-0.01091 0,-0.01328 3.16e-4,-0.0023 -6.37e-4,-0.01104 0,-0.01328 9.54e-4,-0.0022 0.0076,-0.01116 0.0089,-0.01328 0.0031,-0.0041 0.01339,-0.01382 0.01771,-0.01771 0.235128,-0.181015 1.788566,-0.09902 2.209132,-0.101823 -0.286919,1.177585 1.04558,0.730503 0.761464,1.908087 -0.09065,1.185062 -1.354918,1.1972 -2.293247,1.531783 1.67946,0.487857 2.778643,1.553986 4.205762,2.293247 0.553248,-0.426174 0.183383,-0.84269 0.190366,-0.973966 l 0.0044,-0.0044 v -0.0044 -0.0044 l 0.0044,-0.0044 0.0044,-0.0044 0.0044,-0.0044 h 0.0044 l 0.0044,-0.0044 h 0.0044 c 0.07685,-0.02455 0.318163,0.03939 0.925267,0.239064 0.05795,-0.94861 0.07499,-1.852016 -0.761464,-1.908087 0.375705,-1.172912 1.019873,0.438681 1.527355,0.380732 0.389726,-0.246731 0.395213,-0.880845 1.146624,-0.765891 -2.274794,-1.990678 -2.211932,-4.89304 -6.113849,-4.586494 -0.212518,-0.07566 -0.326155,-0.143615 -0.358597,-0.194793 -0.0012,-0.0023 -0.0036,-0.01105 -0.0044,-0.01328 -5.47e-4,-0.0022 -0.0042,-0.01114 -0.0044,-0.01328 4.7e-5,-0.0021 0.0041,-0.01123 0.0044,-0.01328 6.21e-4,-0.002 0.0035,-0.01131 0.0044,-0.01328 l 0.0044,-0.0044 0.0044,-0.0044 c 0.162187,-0.174874 1.504613,-0.160721 1.877098,-0.123959 -0.08692,-0.550474 -1.140083,-0.134109 -1.146623,-0.765892 z m -9.310228,2.961742 c -0.519351,0.415716 -0.962884,0.914501 -1.460949,1.354698 0.593642,-0.359194 1.522895,-0.386133 1.598189,-1.261729 -0.04673,-0.02803 -0.09144,-0.0612 -0.13724,-0.09297 z m 25.318685,5.343531 c -0.928475,0.676528 -1.624222,1.883316 -1.487512,3.546121 0.213437,0.479387 1.251959,0.135671 1.487512,0.593234 z m 0,4.312012 c -0.1893,0.03477 -0.346019,0.293275 0,0.371878 z m -23.401743,19.669683 c -0.405057,0.0021 -0.759356,0.171279 -1.018237,0.588807 2.197223,-0.159814 2.50516,1.567544 4.586493,1.527355 -0.70655,-0.64697 -2.353084,-2.122645 -3.568256,-2.116162 z m 5.086758,2.107308 c -0.717197,0.04709 -1.255648,0.273572 -1.518502,0.774746 0.900011,0.268228 2.425024,0.874315 2.293247,-0.765892 -0.27477,-0.02009 -0.53568,-0.02455 -0.774745,-0.0089 z" /><path
         id="path2-0-4-2"
         style="display:inline;fill:#0a9396;fill-opacity:1;stroke-width:4.14131;stroke-dasharray:24.8479, 24.8479"
         d="M 45.376323,6.3887762 V 17.956834 c 1.936557,-1.113955 4.54561,-1.554177 6.565415,-2.585437 -1.876658,-1.423382 1.312166,-2.894883 0,-4.586493 0.166357,-0.566362 0.489607,0.150469 1.146624,0 0.0093,-0.9000113 -0.653878,-1.1250085 -0.376305,-2.293247 0.799076,-0.095328 0.963651,-0.8298946 1.580481,-1.1112065 -0.629914,-0.1411231 -1.262531,-0.2650887 -1.903661,-0.376305 -0.300003,0.01028 -0.586747,0.00526 -0.827871,-0.044271 0.03271,-0.035515 0.04559,-0.060258 0.07083,-0.092969 -2.031805,-0.3130881 -4.11373,-0.4781287 -6.233381,-0.4781287 -0.0075,0 -0.01467,-4.1e-6 -0.02214,0 z m 24.154353,9.3677808 c -4.121545,0.464493 -4.848048,4.329822 -7.2649,6.499008 0.530848,0.49066 0.235044,1.803521 0.765891,2.293247 0.44393,-0.322431 1.025588,-0.502229 1.912515,-0.380732 0.312153,0.277573 1.022334,2.644653 -0.385159,2.293247 -0.124301,-0.885992 0.06365,-1.468585 0.385159,-1.912515 -1.99909,1.441139 -2.094402,4.791277 -5.352385,4.971653 0.116823,0.882254 -1.108993,0.425119 -1.15105,1.146623 0.392527,0.880384 1.321145,1.231906 1.15105,2.673979 h -0.385159 c -0.350472,1.042069 -1.194168,-0.532717 -2.293247,0 -1.192539,0.209349 -0.583998,2.219876 -1.146623,3.059138 -0.105608,0.619634 0.362039,0.658767 0.380732,1.146624 h 3.444297 c 0.08038,-0.427108 0.424076,-0.590434 0.761464,-0.761464 v -1.531783 c 1.202818,-0.58225 2.08191,-1.484718 3.439871,-1.908088 0.519633,0.118693 0.319737,0.955385 0.385159,1.527356 0.371033,-1.55516 4.627746,1.845578 1.908087,2.293247 1.222445,1.443009 1.536582,-1.241017 2.673979,-1.146624 0.163553,0.728981 1.094868,0.69194 0.765892,1.912515 h 0.765891 c 1.516841,-0.448603 -0.525587,-2.470819 1.908088,-2.293247 -0.522436,0.488791 -0.522436,1.805391 0,2.293247 1.089733,0.568231 3.093826,0.222667 3.444297,1.527356 -0.211218,0.681316 -0.198595,1.588211 -0.765891,1.912514 -0.04766,-0.84487 -1.621276,-0.166464 -2.293247,-0.385159 -1.798153,0.643934 -1.50761,-0.405493 -2.673979,-1.146623 -0.558885,0.332714 -1.214605,0.574761 -1.151051,1.531782 -1.228987,-0.553278 -1.939852,-1.62653 -3.43987,-1.912514 v -1.527356 c -2.909382,-1.063564 -10.143555,-0.345449 -9.938879,4.201335 -4.253322,1.544879 -2.151069,5.473631 -3.43987,9.177414 1.411233,1.263568 2.103514,3.247117 3.82503,4.201334 2.400029,-0.277574 4.114866,0.05748 6.499008,-0.765891 -0.09439,1.244875 1.394997,0.898131 1.908088,1.531783 -0.271966,4.581365 3.312652,7.033009 0.765891,10.700343 1.229922,2.59162 1.268936,6.379249 2.293247,9.177414 6.182319,0.903749 6.433583,-7.284641 10.319611,-9.938879 0.202806,-2.81125 0.09533,-3.593365 0,-6.499008 1.88507,-2.322458 4.595948,-3.81381 4.971653,-7.645632 -0.870104,-0.865431 -2.377822,1.20153 -3.059139,-0.380732 2.235542,-1.516841 7.37847,-3.135525 4.967226,-6.884168 h 1.487512 C 85.419858,35.359522 81.686659,26.77667 75.812755,20.126122 c -0.406547,0.381313 -0.857488,0.727213 -0.934121,0.216928 -0.8673,0.901879 -1.140435,-0.47839 -1.527356,-1.146623 0.921506,-0.157011 0.830259,0.696623 1.912515,0.380732 -0.03832,-0.07196 -0.09076,-0.133553 -0.132814,-0.203647 -0.743,-0.800009 -1.510945,-1.571006 -2.310955,-2.306529 -0.951413,-0.58225 -2.059427,-1.008553 -3.289348,-1.310426 z m -19.120721,2.293247 c -0.01589,1.163566 0.813663,1.485759 1.151051,2.293246 1.564505,0.03645 3.002377,-0.0507 3.054711,-1.527355 0.0037,-0.382247 -0.307836,-0.45654 -0.380732,-0.765891 -1.528055,0.374772 -2.295105,0.374772 -3.82503,0 z m -3.276066,1.943504 c -0.590764,0.01891 -1.213739,0.239413 -1.757566,0.641932 v 4.090657 c 0.03664,0.0544 0.05951,0.123976 0.06641,0.208074 -0.02219,-1.97e-4 -0.04483,-0.0015 -0.06641,0.0044 v 0.358597 c 0.02016,0.0053 0.04232,0.01376 0.06641,0.01771 1.371044,-0.794402 3.234613,-1.09452 3.820602,-2.673979 0.18277,-1.84938 -0.894427,-2.686943 -2.129443,-2.647416 z m 10.921698,3.789613 c -0.821506,2.018716 1.166015,3.703875 -0.380732,5.737544 0.685055,0.04766 0.804917,-0.466715 1.527356,-0.380732 1.080387,0.315892 0.992878,-0.541235 1.912515,-0.385159 V 27.988682 C 59.496015,27.187737 60.0472,24.211897 58.055587,23.782921 Z m -0.765891,2.293247 c -1.223379,0.05047 -1.678759,0.867996 -1.527355,2.293246 h 1.912514 c 0.04953,-0.941132 0.05597,-1.840904 -0.385159,-2.293246 z m 23.317628,37.847427 c -1.135528,2.390683 -3.246775,3.56159 -2.28882,6.499008 0.164488,-0.335517 0.331848,-0.667317 0.739329,-0.757037 0.01496,-0.0215 0.02489,-0.04679 0.03984,-0.06641 0.202808,-0.921507 0.716761,-1.527274 1.128915,-2.235694 -0.07851,-1.126182 1.510652,-2.532383 0.380732,-3.43987 z"
         transform="translate(-56.252512,8.838854)" /></g><g
       id="g22"
       style="display:inline"
       transform="matrix(1.1997055,0,0,1.1997055,-9.0810987,-9.0516184)"><path
         style="opacity:1;fill:#076e70;fill-opacity:1;stroke:#0a9396;stroke-width:8.13995039;stroke-linecap:round;stroke-miterlimit:4;stroke-dasharray:none;stroke-dashoffset:0;stroke-opacity:1"
         d="M 45.363534,46.982145 23.83653,33.996796"
         id="path21"
         sodipodi:nodetypes="cc"
         inkscape:transform-center-x="4.8988234"
         inkscape:transform-center-y="-3.6472714" /><path
         style="fill:#f6cd7f;fill-opacity:1;stroke:#f6cd7f;stroke-width:8.13995039;stroke-linecap:round;stroke-dasharray:none;stroke-dashoffset:0;stroke-opacity:1"
         d="M 45.37053,46.959738 61.427667,37.221762"
         id="path21-7"
         sodipodi:nodetypes="cc"
         inkscape:transform-center-x="-4.008424"
         inkscape:transform-center-y="-2.3773277" /><ellipse
         style="fill:#05484a;fill-opacity:1;stroke:none;stroke-width:18.1863;stroke-dasharray:none;stroke-dashoffset:0;stroke-opacity:1"
         id="path79"
         cx="45.40271"
         cy="46.838051"
         rx="6.8210363"
         ry="6.8524075" /></g></g></svg>
