<?xml version="1.0" encoding="UTF-8" standalone="no"?>
<svg
   version="1.1"
   x="0px"
   y="0px"
   viewBox="4.106 5.67 100.00001 68.029439"
   enable-background="new 4.106 5.67 88.622 88.66"
   xml:space="preserve"
   id="svg1"
   width="100.00002"
   height="68.029442"
   xmlns="http://www.w3.org/2000/svg"
   xmlns:svg="http://www.w3.org/2000/svg"><defs
     id="defs1" /><g
     style="fill:#ffd588;fill-opacity:1"
     id="g72"
     transform="matrix(0.20408122,0,0,0.20408122,92.681076,207.50883)"><g
       id="g6"
       style="fill:#4d4d4d;fill-opacity:1"
       transform="translate(-1433.8564,-186.89154)">
	<path
   d="m 376.577,78.33 c -3.041,0 -6.075,0.369 -9.017,1.098 -0.971,0.24 -1.704,1.037 -1.864,2.023 -0.16,0.986 0.286,1.975 1.132,2.508 9.49,5.988 15.156,16.252 15.156,27.455 0,14.953 -10.124,27.9 -24.621,31.488 -0.971,0.238 -1.704,1.035 -1.864,2.023 -0.159,0.986 0.286,1.975 1.132,2.508 5.966,3.764 12.863,5.754 19.945,5.754 20.638,0 37.428,-16.791 37.428,-37.428 10e-4,-20.638 -16.79,-37.429 -37.427,-37.429 z"
   id="path1"
   style="fill:#4d4d4d;fill-opacity:1" />
	<g
   id="g5"
   style="fill:#4d4d4d;fill-opacity:1">
		<path
   d="m 111.525,171.018 -7.695,-0.844 -4.874,-6.014 c -0.363,-0.449 -0.935,-0.676 -1.505,-0.604 -0.572,0.074 -1.065,0.441 -1.303,0.967 l -3.181,7.057 -7.226,2.777 c -0.539,0.207 -0.932,0.68 -1.038,1.246 -0.106,0.568 0.089,1.15 0.516,1.537 l 5.729,5.207 0.409,7.73 c 0.031,0.576 0.358,1.096 0.864,1.373 0.248,0.135 0.522,0.203 0.797,0.203 0.285,0 0.569,-0.074 0.825,-0.221 l 6.722,-3.84 7.478,2.002 c 0.559,0.148 1.153,-0.002 1.572,-0.398 0.42,-0.396 0.604,-0.982 0.486,-1.547 l -1.574,-7.58 4.213,-6.494 c 0.315,-0.484 0.355,-1.096 0.108,-1.617 -0.249,-0.52 -0.749,-0.876 -1.323,-0.94 z"
   id="path2-3"
   style="fill:#4d4d4d;fill-opacity:1" />
		<g
   id="g4"
   style="fill:#4d4d4d;fill-opacity:1">
			<path
   d="m 156.626,123.135 c -0.248,-0.521 -0.748,-0.877 -1.321,-0.939 l -7.695,-0.844 -4.874,-6.016 c -0.364,-0.447 -0.935,-0.674 -1.506,-0.601 -0.572,0.074 -1.066,0.439 -1.303,0.967 l -3.181,7.057 -7.226,2.777 c -0.539,0.207 -0.932,0.678 -1.038,1.246 -0.106,0.566 0.089,1.148 0.516,1.537 l 5.729,5.207 0.408,7.73 c 0.031,0.576 0.358,1.096 0.864,1.371 0.249,0.137 0.523,0.203 0.796,0.203 0.285,0 0.57,-0.072 0.825,-0.219 l 6.722,-3.84 7.478,2.002 c 0.559,0.148 1.153,-0.002 1.572,-0.398 0.419,-0.396 0.604,-0.982 0.486,-1.547 l -1.575,-7.58 4.213,-6.494 c 0.316,-0.484 0.357,-1.097 0.11,-1.619 z"
   id="path3"
   style="fill:#4d4d4d;fill-opacity:1" />
			<path
   d="m 67.747,122.196 -7.695,-0.844 -4.874,-6.014 c -0.364,-0.449 -0.933,-0.678 -1.506,-0.604 -0.572,0.074 -1.066,0.439 -1.303,0.967 l -3.181,7.057 -7.226,2.777 c -0.539,0.207 -0.932,0.678 -1.039,1.246 -0.106,0.566 0.089,1.148 0.517,1.537 l 5.729,5.207 0.408,7.73 c 0.031,0.576 0.358,1.096 0.865,1.371 0.248,0.137 0.522,0.203 0.796,0.203 0.285,0 0.569,-0.072 0.825,-0.219 l 6.722,-3.84 7.478,2.002 c 0.559,0.148 1.153,-0.002 1.572,-0.398 0.42,-0.396 0.604,-0.982 0.486,-1.547 l -1.575,-7.58 4.214,-6.494 c 0.314,-0.484 0.355,-1.096 0.107,-1.619 -0.247,-0.518 -0.747,-0.876 -1.32,-0.938 z"
   id="path4"
   style="fill:#4d4d4d;fill-opacity:1" />
		</g>
	</g>
	<path
   d="M 480.021,391.715 H 439.523 L 253.866,130.729 281.602,88.641 c 2.021,-3.066 1.173,-7.193 -1.895,-9.215 -3.067,-2.021 -7.193,-1.174 -9.215,1.895 L 245,120.004 219.507,81.32 c -2.021,-3.068 -6.148,-3.916 -9.215,-1.895 -3.068,2.021 -3.916,6.148 -1.894,9.215 L 236.134,130.728 50.477,391.715 H 9.979 c -5.511,0 -9.979,4.467 -9.979,9.979 0,5.512 4.468,9.978 9.979,9.978 h 470.043 c 5.511,0 9.979,-4.467 9.979,-9.978 -10e-4,-5.512 -4.469,-9.979 -9.98,-9.979 z M 245,261.166 296.694,391.715 H 193.307 Z"
   id="path5"
   style="fill:#4d4d4d;fill-opacity:1" />
<path
   d="m 1479.8587,-488.73279 h -40.498 l -185.657,-260.986 27.736,-42.088 c 2.021,-3.066 1.173,-7.193 -1.895,-9.215 -3.067,-2.021 -7.193,-1.174 -9.215,1.895 l -25.492,38.683 -25.493,-38.684 c -2.021,-3.068 -6.148,-3.916 -9.215,-1.895 -3.068,2.021 -3.916,6.148 -1.894,9.215 l 27.736,42.088 -185.657,260.987 h -40.498 c -5.511,0 -9.97905,4.467 -9.97905,9.979 0,5.512 4.46805,9.978 9.97905,9.978 h 470.043 c 5.511,0 9.979,-4.467 9.979,-9.978 -10e-4,-5.512 -4.469,-9.979 -9.98,-9.979 z m -235.021,-130.549 51.694,130.549 h -103.387 z"
   id="path5-61"
   style="fill:#4d4d4d;fill-opacity:1" /></g></g></svg>
