<?xml version="1.0" encoding="UTF-8" standalone="no"?>
<svg
   version="1.1"
   x="0px"
   y="0px"
   viewBox="4.106 5.67 55.534362 69.999997"
   enable-background="new 4.106 5.67 88.622 88.66"
   xml:space="preserve"
   id="svg1"
   sodipodi:docname="Logo.svg"
   inkscape:version="1.4.2 (ebf0e940d0, 2025-05-08)"
   width="55.534374"
   height="70"
   inkscape:export-filename="/home/felix/travelblog/Logo_v3.svg"
   inkscape:export-xdpi="300"
   inkscape:export-ydpi="300"
   xmlns:inkscape="http://www.inkscape.org/namespaces/inkscape"
   xmlns:sodipodi="http://sodipodi.sourceforge.net/DTD/sodipodi-0.dtd"
   xmlns:xlink="http://www.w3.org/1999/xlink"
   xmlns="http://www.w3.org/2000/svg"
   xmlns:svg="http://www.w3.org/2000/svg"><defs
     id="defs1"><clipPath
       clipPathUnits="userSpaceOnUse"
       id="clipPath55"><ellipse
         style="fill:none;stroke:#000000;stroke-width:4.53336;stroke-dasharray:none;stroke-dashoffset:0;stroke-opacity:1"
         id="circle55"
         cy="-149.25909"
         cx="-10.839069"
         rx="18.055161"
         ry="19.0555" /></clipPath></defs><sodipodi:namedview
     id="namedview1"
     pagecolor="#ffffff"
     bordercolor="#000000"
     borderopacity="0.25"
     inkscape:showpageshadow="2"
     inkscape:pageopacity="0.0"
     inkscape:pagecheckerboard="0"
     inkscape:deskcolor="#d1d1d1"
     inkscape:zoom="5.1724574"
     inkscape:cx="9.2799217"
     inkscape:cy="40.406326"
     inkscape:window-width="1920"
     inkscape:window-height="1008"
     inkscape:window-x="0"
     inkscape:window-y="0"
     inkscape:window-maximized="1"
     inkscape:current-layer="svg1"><inkscape:page
       x="0"
       y="0"
       width="55.534363"
       height="70"
       id="page2"
       margin="0"
       bleed="0" /></sodipodi:namedview><g
     id="g76-2-6"
     transform="matrix(0.44117307,0,0,0.44117307,20.59436,20.057686)"><rect
       style="fill:none;stroke:none;stroke-width:12.6061;stroke-linecap:round"
       id="rect1"
       width="125.87888"
       height="158.66789"
       x="-37.373905"
       y="-32.612339" /><g
       id="path6"
       inkscape:transform-center-y="-2.9845368"
       style="display:inline;opacity:1;fill:#d6fbfc;fill-opacity:1"
       transform="translate(-39.644797,-1.7871533)"><path
         style="baseline-shift:baseline;display:inline;overflow:visible;vector-effect:none;fill:#d6fbfc;fill-opacity:1;stroke-dasharray:81.6008, 81.6008;enable-background:accumulate;stop-color:#000000;stop-opacity:1"
         d="M -18.820068,19.570896 V 35.345655"
         id="path55" /><path
         style="baseline-shift:baseline;display:inline;overflow:visible;vector-effect:none;fill:#8ef5f7;fill-opacity:1;stroke-dasharray:81.6008, 81.6008;enable-background:accumulate;stop-color:#000000;stop-opacity:1"
         d="m -22.220703,20.749884 v 14.595819 h 6.800781 V 20.874545 c 0.31579,-1.213498 -1.059884,-1.324785 -1.065641,-1.304233 h -4.77865 c 0,0 -0.95649,-0.04483 -0.95649,1.179572 z"
         id="path56"
         sodipodi:nodetypes="ccccccc" /></g><g
       id="g81"><path
         id="path2-0-4"
         style="opacity:0.6;fill:#000000;fill-opacity:1;stroke-width:4.14131;stroke-dasharray:24.8479, 24.8479"
         d="M 45.402709,5.5547374 A 41.41312,41.41312 0 0 0 40.901395,5.8028845 C 42.379951,5.6422413 43.881269,5.5547374 45.402709,5.5547374 Z M 40.901395,5.8028845 C 39.813794,5.9210509 38.75431,6.1255883 37.693729,6.3265478 a 41.41312,41.41312 0 0 1 3.207666,-0.5236633 z m -3.207666,0.5236633 a 41.41312,41.41312 0 0 0 -1.182348,0.1952333 c 0.387192,-0.085055 0.791178,-0.1211144 1.182348,-0.1952333 z m -1.182348,0.1952333 c -1.271627,0.2793419 -2.51182,0.6394794 -3.736803,1.0327298 a 41.41312,41.41312 0 0 1 3.736803,-1.0327298 z m -3.736803,1.0327298 a 41.41312,41.41312 0 0 0 -0.556507,0.1550919 c 0.18148,-0.061067 0.373917,-0.096476 0.556507,-0.1550919 z M 32.218071,7.7096028 C 30.804976,8.1851035 29.424246,8.7312877 28.083503,9.349928 A 41.41312,41.41312 0 0 1 32.218071,7.7096028 Z M 45.4465,5.5547374 a 41.41312,41.41312 0 0 1 4.683776,0.2992362 C 48.590022,5.6784921 47.033288,5.5564034 45.4465,5.5547374 Z m 4.683776,0.2992362 c 0.303008,0.034522 0.605846,0.068448 0.906832,0.1094766 A 41.41312,41.41312 0 0 0 50.130276,5.8539736 Z m 0.906832,0.1094766 a 41.41312,41.41312 0 0 1 4.62174,0.8849363 C 54.150751,6.4637576 52.606236,6.1773434 51.037108,5.9634502 Z m 4.62174,0.8849363 c 0.07829,0.019966 0.153621,0.0471 0.231725,0.067511 a 41.41312,41.41312 0 0 0 -0.231725,-0.067511 z m 0.231725,0.067511 a 41.41312,41.41312 0 0 1 3.537921,1.1513291 C 58.264257,7.6469126 57.100603,7.2321156 55.890573,6.9158975 Z m 3.537921,1.1513295 c 1.215444,0.4388013 2.394745,0.9480392 3.554341,1.4943564 A 41.41312,41.41312 0 0 0 59.428494,8.067227 Z m 3.554341,1.4943564 A 41.41312,41.41312 0 0 1 64.805621,10.41915 C 64.213363,10.103892 63.59177,9.848468 62.982835,9.5615834 Z m 1.822786,0.8575666 c 1.7108,0.910656 3.37269,1.904829 4.930099,3.037977 A 41.41312,41.41312 0 0 0 64.805621,10.41915 Z m 4.930099,3.037977 a 41.41312,41.41312 0 0 1 3.390127,2.784356 C 72.040216,15.261026 70.920991,14.319514 69.73572,13.457127 Z m 3.390127,2.784356 c 0.355069,0.32067 0.694456,0.658126 1.038204,0.990764 a 41.41312,41.41312 0 0 0 -1.038204,-0.990764 z m 1.038204,0.990764 a 41.41312,41.41312 0 0 1 2.158514,2.25157 c -0.691774,-0.777819 -1.41071,-1.527935 -2.158514,-2.25157 z m 2.158514,2.25157 c 0.317696,0.35721 0.639788,0.710225 0.945149,1.078345 a 41.41312,41.41312 0 0 0 -0.945149,-1.078345 z m 0.945149,1.078345 a 41.41312,41.41312 0 0 1 2.640212,3.506902 c -0.812399,-1.221793 -1.706253,-2.380992 -2.640212,-3.506902 z m 2.640212,3.506902 a 41.41312,41.41312 0 0 1 2.777058,4.871711 c -0.81907,-1.690604 -1.744555,-3.318898 -2.777058,-4.871711 z m 2.777058,4.871711 c 0.05931,0.122414 0.09696,0.256437 0.155092,0.379519 a 41.41312,41.41312 0 0 0 -0.155092,-0.379519 z m 0.155092,0.379519 a 41.41312,41.41312 0 0 1 1.932263,4.80785 c -0.539456,-1.654242 -1.197627,-3.252482 -1.932263,-4.80785 z m 1.932263,4.80785 c 0.146441,0.449062 0.222603,0.927393 0.353974,1.383055 a 41.41312,41.41312 0 0 0 -0.353974,-1.383055 z m 0.353974,1.383055 a 41.41312,41.41312 0 0 1 1.021782,4.059759 c -0.250661,-1.38749 -0.636678,-2.724032 -1.021782,-4.059759 z m 1.021782,4.059759 c 0.331786,1.836538 0.548274,3.713075 0.629491,5.625276 A 41.41312,41.41312 0 0 0 86.148095,39.570958 Z M 45.399061,6.3904091 c -3.607521,0 -7.103179,0.4788614 -10.433126,1.3629844 0.05514,-0.00654 0.102715,-0.02172 0.156917,-0.029194 0.140188,1.285997 -1.656145,0.6383284 -2.293536,1.1476802 0.978517,2.9121853 7.144129,1.4235453 5.351583,6.4974393 0.06729,0.344864 0.42308,0.391096 0.624018,0.249972 0.04206,-0.08879 0.08731,-0.172492 0.136846,-0.246322 -0.0019,0.109347 -0.05834,0.189307 -0.136846,0.246322 -0.820571,1.727124 -0.293105,6.228748 2.434031,7.013804 1.087863,-0.695336 1.467357,-2.101961 2.293535,-3.058047 1.703759,-2.500966 5.62731,-2.782392 8.411456,-4.203904 -1.876658,-1.423382 1.312166,-2.895462 0,-4.587072 0.166357,-0.566362 0.48884,0.150469 1.145857,0 0.0093,-0.9000111 -0.657093,-1.1252974 -0.37952,-2.2935359 C 53.509352,8.395208 53.675384,7.6624847 54.292214,7.3811728 53.6623,7.2400497 53.02845,7.1146947 52.38732,7.0034784 c -0.300003,0.01028 -0.585425,0.00757 -0.826549,-0.041966 0.03271,-0.035515 0.0441,-0.060344 0.06934,-0.093055 C 49.598306,6.5553693 47.518712,6.3904091 45.399061,6.3904091 Z M 32.652329,8.4485702 c -1.945818,0.6439331 -3.824275,1.430506 -5.6271,2.3482738 0.501875,0.02711 1.097462,-0.03902 1.596535,-0.0092 -0.872908,0.761692 -1.514222,0.615438 -2.288063,0.363098 -0.421501,0.224301 -0.835835,0.46135 -1.249858,0.702475 1.128051,0.429916 2.520078,0.254117 4.306081,0.08028 0.80001,-1.448615 1.780144,-2.7177076 3.262405,-3.4850067 z m -4.800551,0.9560961 c -0.538325,0.2504707 -1.07214,0.5125729 -1.600184,0.7864077 0.02447,0.0076 0.05371,0.01109 0.08028,0.01642 a 41.41312,41.41312 0 0 1 1.505304,-0.7426166 c 0.0037,-0.020442 0.01273,-0.038814 0.0146,-0.060211 z m -1.519901,0.8028287 a 41.41312,41.41312 0 0 0 -0.286464,0.149618 c 6.34e-4,9.34e-4 0.0012,0.0026 0.0019,0.0036 0.09626,-0.05233 0.196565,-0.100043 0.293762,-0.151443 -0.0028,-6.37e-4 -0.0063,-0.0012 -0.0092,-0.0019 z m -0.286464,0.149618 c -0.0092,-0.01412 -0.02221,-0.02346 -0.02919,-0.03832 -0.305611,0.16075 -0.610477,0.32077 -0.910481,0.488996 0.02683,0.005 0.05276,0.01275 0.07846,0.01825 a 41.41312,41.41312 0 0 1 0.861216,-0.468924 z m -0.861217,0.468925 a 41.41312,41.41312 0 0 0 -0.946973,0.545558 c 0.0012,8.85e-4 0.0024,0.0027 0.0036,0.0036 0.314022,-0.186919 0.632817,-0.368878 0.952447,-0.547384 -0.003,-5.75e-4 -0.0062,-0.0012 -0.0092,-0.0019 z m -0.946973,0.545558 c -0.01561,-0.01146 -0.03087,-0.018 -0.04562,-0.03102 0.145824,-0.08551 0.289118,-0.1742 0.434258,-0.259094 -0.148055,0.08536 -0.296727,0.17204 -0.443381,0.259094 l 0.0019,0.0019 c -0.07476,0.04486 -0.14966,0.09016 -0.224428,0.135022 0.03388,-0.0036 0.05326,0.0078 0.08211,0.01095 a 41.41312,41.41312 0 0 1 0.195233,-0.116775 z m -0.195233,0.116776 a 41.41312,41.41312 0 0 0 -0.474399,0.290113 c -0.001,0.0033 -0.0025,0.0058 -0.0036,0.0092 0.159814,-0.09907 0.318188,-0.200213 0.479872,-0.297411 z m -0.474399,0.290113 c 0.0093,-0.02876 0.01646,-0.05555 0.02737,-0.08576 h -0.0019 v -0.0019 c -0.02176,0.01404 -0.0443,0.02948 -0.06752,0.04379 0.0097,-0.0056 0.02065,-0.01072 0.03102,-0.01642 -0.06355,0.04019 -0.128922,0.08024 -0.193409,0.120425 0.01963,-0.01309 0.03694,-0.02617 0.05657,-0.03831 -0.181311,0.112151 -0.364293,0.225312 -0.543734,0.341202 0.119628,-0.07663 0.242535,-0.150594 0.363098,-0.224427 -0.120563,0.07663 -0.240711,0.155045 -0.361274,0.23355 0,0.01885 0.0038,0.04158 0.0055,0.06204 a 41.41312,41.41312 0 0 1 0.684229,-0.434258 z m -0.684229,0.434257 a 41.41312,41.41312 0 0 0 -0.03831,0.02554 c 0.0016,0.0029 0.0019,0.0045 0.0036,0.0073 0.01215,-0.0075 0.02345,-0.01442 0.03467,-0.0219 -1.49e-4,-0.0037 3.05e-4,-0.0071 0,-0.01095 z m -0.03831,0.02554 c -0.0087,-0.01554 -0.01557,-0.03224 -0.02737,-0.04562 0.01963,-0.01309 0.03695,-0.02705 0.05657,-0.04014 l 0.0019,-0.0019 v -0.0019 -0.0019 l -0.0019,-0.0019 v -0.0019 c -0.02108,0.01375 -0.04186,0.02912 -0.06386,0.04379 v 0.0019 h 0.0019 c 3.5e-4,7.01e-4 -2.63e-4,0.0047 0,0.0055 -1.139266,0.738327 -2.24183,1.527123 -3.300722,2.371994 0.007,0.0203 0.01851,0.03961 0.02737,0.05839 a 41.41312,41.41312 0 0 1 3.306196,-2.38659 z m -3.306195,2.386591 A 41.41312,41.41312 0 0 0 8.2846503,28.603222 C 10.985394,23.161565 14.84708,18.398817 19.544324,14.635826 c -0.0015,-0.0036 -0.0037,-0.0073 -0.0055,-0.01095 z M 8.2846503,28.603222 C 7.522906,30.138041 6.8874163,31.742731 6.3177198,33.378229 A 41.41312,41.41312 0 0 1 8.2846503,28.603222 Z M 6.3177198,33.378229 A 41.41312,41.41312 0 0 0 5.9071824,34.673703 C 6.04211,34.240792 6.1690939,33.804908 6.3177198,33.378229 Z m -0.4105374,1.295474 c -0.3939741,1.264052 -0.7252137,2.551631 -0.9980622,3.864526 a 41.41312,41.41312 0 0 1 0.9980622,-3.864526 z m -0.9980622,3.864526 a 41.41312,41.41312 0 0 0 -0.2809901,1.359335 c 0.079197,-0.458238 0.18686,-0.906399 0.2809901,-1.359335 z M 4.6281301,39.897564 C 4.3356408,41.589926 4.113618,43.304938 4.033307,45.061213 A 41.41312,41.41312 0 0 1 4.6281301,39.897564 Z M 24.499967,12.189022 c -0.385051,0.230845 -0.761917,0.476794 -1.138557,0.720722 -0.06355,0.264489 -0.186634,0.55854 -0.470749,0.932376 1.134593,-0.140188 1.886988,-0.662658 2.293535,-1.529024 -0.436454,0.167292 -0.598245,0.06004 -0.684229,-0.124074 z m 4.889957,0.127723 c -1.359829,0.806552 -4.531979,-0.203676 -4.585247,1.910368 -0.287853,1.306558 1.552404,0.486941 1.145856,1.912192 -0.340191,0.167292 -0.683199,0.333711 -0.764512,0.762687 -0.484118,-1.478522 -1.72345,-0.496347 -1.910368,-2.674879 -0.6187,-0.108412 -0.659823,0.362606 -1.14768,0.383168 -0.316826,1.078518 0.538355,0.988906 0.381344,1.908543 -1.531681,-1.902715 -1.640783,1.12572 -4.185658,0.386818 -5.283393,4.762798 -9.3828609,10.815894 -11.5935772,17.758937 0.1130855,3.889767 1.0814971,7.988231 3.7422772,10.586393 -0.06449,-1.070107 -0.6936603,-1.574645 -0.757214,-2.645686 1.226182,0.788795 2.000579,2.032095 1.890297,4.158288 3.943039,2.857979 9.343021,4.262412 12.093521,8.312928 -0.414958,1.09721 -1.208979,1.816659 -1.890297,2.64751 -1.069171,5.041183 4.955973,7.481196 5.669066,11.715827 0.915899,5.434645 -1.620844,10.934072 -0.104003,13.914482 0.956087,0.473838 1.931337,0.908241 2.926677,1.308246 0.627109,-3.109383 -0.243885,-5.491237 3.671116,-6.597792 0.317761,-1.082257 -0.537419,-0.990686 -0.381343,-1.912193 2.200027,0.582249 3.851518,-2.455302 4.205728,-4.968416 1.025246,-0.501876 2.031822,-1.025279 3.059873,-1.529024 -0.05233,-4.000983 2.313237,-5.5834 2.673054,-9.175967 -2.516852,-0.920572 -4.531077,-2.345936 -7.261951,-3.056224 v -1.910367 c -1.528991,-1.401886 -4.43196,-1.429963 -4.968415,-3.824384 -2.50003,-0.02617 -4.112331,-0.353279 -4.968416,-1.147681 -1.425252,0.231779 -1.557095,1.75705 -3.058048,1.912192 -0.0093,-0.371972 -0.469136,-0.297184 -0.766336,-0.383168 -1.957968,-0.281312 -1.253334,-1.745914 -1.145856,-3.439392 -0.555147,-0.207479 -1.974856,0.447684 -1.910368,-0.383168 -0.05795,-0.948609 0.196325,-1.585129 0.762687,-1.910368 C 20.017736,45.006693 17.7821,45.50762 17.92042,46.719783 h -0.383168 c -5.956147,-1.378521 0.346816,-7.751599 3.82256,-5.734752 0.294396,1.107491 0.604714,2.19637 1.529024,2.674881 1.139266,-0.7673 -0.425298,-3.098266 0.384993,-3.439392 0.49066,-0.655148 0.787968,-1.504726 1.908543,-1.529024 0.704681,-4.348651 5.445997,-5.704893 7.263776,-6.880608 V 31.42772 c -0.0084,-0.371972 -0.468247,-0.296295 -0.764512,-0.381344 -0.233648,-0.0215 -0.452371,-0.05793 -0.381344,-0.383168 -0.156077,-0.920573 0.697235,-0.830916 0.381344,-1.910368 1.232725,1.607496 2.381421,-0.40189 3.82256,-0.764512 -0.214956,0.550474 -0.598142,0.933659 -1.147681,1.147681 -0.270097,0.283181 -0.953296,1.870149 0.383169,1.529023 0.900011,-0.0093 1.125297,0.657982 2.293536,0.381344 -0.545801,-3.407519 -2.62535,-5.224532 -3.82256,-8.7928 -1.238334,-0.471034 -0.29345,1.23924 -1.530849,0.766337 -1.321511,0.04766 -0.556159,-1.992554 -1.5272,-2.295361 -1.385998,0.245798 -1.919655,-0.795403 -2.29536,-0.762687 -0.02056,0.232713 -0.05611,0.450502 -0.381343,0.381344 0.130843,4.981368 -0.989781,4.190841 -2.293536,7.263776 0.0093,-0.900946 -0.657983,-1.124362 -0.381344,-2.293536 -0.526174,0.01776 -0.84109,-0.178537 -1.149505,-0.381344 -1.274782,-0.507483 -2.728181,-0.837443 -3.056223,-2.293536 1.11964,-1.30095 2.009498,-2.833732 3.820735,-3.441216 -0.285984,0.970105 1.46169,1.793482 1.530848,1.14768 -0.385051,-0.0037 -0.481314,-0.669183 0,-0.764512 0.527109,-0.01589 0.840201,0.179472 1.147681,0.381344 0.06449,-0.956086 -0.586927,-1.197245 -1.147681,-1.529024 0.432716,-0.969171 1.843047,-0.96084 1.529025,-2.67488 -1.217772,-0.527109 1.351437,-0.379431 1.912192,-0.383168 -0.286919,1.177585 1.048627,0.732784 0.764511,1.910368 -0.09065,1.185062 -1.357031,1.19444 -2.29536,1.529023 1.67946,0.487857 2.778609,1.554276 4.205728,2.293537 0.931787,-0.717766 -0.74767,-1.386061 1.147681,-0.762688 0.05795,-0.94861 0.07377,-1.856121 -0.762687,-1.912192 0.375705,-1.172912 1.019716,0.439292 1.527198,0.381343 0.389726,-0.246731 0.398094,-0.877641 1.149505,-0.762687 -2.274794,-1.990678 -2.214178,-4.895442 -6.116095,-4.588896 -1.236464,-0.440196 1.027149,-0.430875 1.529024,-0.381343 -0.08692,-0.550474 -1.141141,-0.13273 -1.147681,-0.764513 z m -9.310989,2.961344 c -0.519351,0.415716 -0.963448,0.913664 -1.461513,1.353861 0.593642,-0.359194 1.523065,-0.383385 1.598359,-1.258981 -0.04673,-0.02803 -0.09105,-0.06311 -0.136846,-0.09488 z m 49.450604,0.479872 c -4.121545,0.464493 -4.845099,4.328254 -7.261951,6.49744 0.530848,0.49066 0.233665,1.805634 0.764512,2.29536 0.44393,-0.322431 1.023441,-0.504665 1.910368,-0.383168 0.312153,0.277573 1.026149,2.644942 -0.381344,2.293536 -0.124301,-0.885992 0.05984,-1.466438 0.381344,-1.910368 -1.99909,1.441139 -2.093601,4.78804 -5.351584,4.968416 0.116823,0.882254 -1.107448,0.426176 -1.149505,1.14768 0.392527,0.880384 1.3196,1.232807 1.149505,2.67488 h -0.383168 c -0.350472,1.042069 -1.194457,-0.532717 -2.293536,0 -1.192539,0.209349 -0.585056,2.218785 -1.147681,3.058047 -0.105608,0.619634 0.362651,0.659824 0.381344,1.147681 h 3.443041 c 0.08038,-0.427108 0.425299,-0.591657 0.762687,-0.762687 v -1.529024 c 1.202818,-0.58225 2.083255,-1.488823 3.441216,-1.912193 0.519633,0.118693 0.317746,0.957054 0.383168,1.529025 0.371033,-1.55516 4.630027,1.845866 1.910368,2.293535 1.222445,1.443009 1.535658,-1.240249 2.673055,-1.145856 0.163553,0.728981 1.093488,0.689793 0.764512,1.910368 h 0.764512 c 1.516841,-0.448603 -0.523307,-2.471108 1.910368,-2.293536 -0.522436,0.488791 -0.522436,1.80568 0,2.293536 1.089733,0.568231 3.09257,0.224335 3.443041,1.529024 -0.211218,0.681316 -0.197217,1.587889 -0.764513,1.912192 -0.04766,-0.84487 -1.621565,-0.164473 -2.293536,-0.383168 -1.798153,0.643934 -1.50851,-0.40655 -2.674879,-1.14768 -0.558885,0.332714 -1.213059,0.572003 -1.149505,1.529024 -1.228987,-0.553278 -1.939373,-1.624384 -3.439391,-1.910368 v -1.529024 c -2.909382,-1.063564 -10.143332,-0.342881 -9.938656,4.203903 -4.253322,1.544879 -2.152415,5.470361 -3.441216,9.174144 1.411233,1.263568 2.101044,3.249687 3.82256,4.203904 2.400029,-0.277574 4.115122,0.05886 6.499264,-0.764513 -0.09439,1.244875 1.397276,0.897197 1.910367,1.530849 -0.271966,4.581365 3.311273,7.034009 0.764512,10.701343 1.229922,2.59162 1.27105,6.375979 2.295361,9.174144 6.182319,0.903749 6.433971,-7.282593 10.319999,-9.936831 0.202806,-2.81125 0.09533,-3.593621 0,-6.499264 1.88507,-2.322458 4.59271,-3.815122 4.968415,-7.646944 -0.870104,-0.865431 -2.37673,1.200918 -3.058047,-0.381344 2.235542,-1.516841 7.379659,-3.131965 4.968415,-6.880608 h 1.485234 C 85.418188,35.361637 81.685578,26.774803 75.811674,20.124255 c -0.406547,0.381313 -0.855743,0.729239 -0.932376,0.218954 -0.8673,0.901879 -1.142102,-0.477623 -1.529023,-1.145856 0.921506,-0.157011 0.829936,0.697235 1.912192,0.381344 -0.03832,-0.07196 -0.08749,-0.134263 -0.129547,-0.204357 -0.743,-0.800009 -1.513598,-1.572609 -2.313608,-2.308132 -0.951413,-0.58225 -2.059852,-1.006374 -3.289773,-1.308247 z m -19.120097,2.293536 c -0.01589,1.163566 0.812117,1.486049 1.149505,2.293536 1.564505,0.03645 3.003889,-0.05419 3.056223,-1.530849 0.0037,-0.382247 -0.308448,-0.453336 -0.381344,-0.762687 -1.528055,0.374772 -2.294459,0.374772 -3.824384,0 z m -3.273352,1.943211 c -1.587879,0.05082 -3.440153,1.544874 -3.224087,4.172885 0.235517,0.528979 1.4729,0.05796 1.530848,0.764512 -0.214021,-0.0019 -0.43365,0.310317 0,0.381344 1.371044,-0.794402 3.234747,-1.095421 3.820736,-2.67488 0.18277,-1.84938 -0.892481,-2.683388 -2.127497,-2.643861 z m 10.918472,3.789717 c -0.821506,2.018716 1.167228,3.701083 -0.379519,5.734752 0.685055,0.04766 0.80476,-0.467327 1.527199,-0.381344 1.080387,0.315892 0.992555,-0.539245 1.912192,-0.383169 v -0.764511 c -1.618711,-0.800945 -1.068259,-3.776752 -3.059872,-4.205728 z m -0.762687,2.293536 c -1.223379,0.05047 -1.680429,0.868285 -1.529025,2.293535 h 1.912193 c 0.04953,-0.941132 0.05796,-1.841193 -0.383168,-2.293535 z M 21.998426,44.603235 c -0.405057,0.0021 -0.761077,0.169996 -1.019958,0.587524 2.197223,-0.159814 2.505739,1.571038 4.587072,1.530849 -0.70655,-0.64697 -2.351942,-2.124856 -3.567114,-2.118373 z m 5.087015,2.109251 c -0.717197,0.04709 -1.257047,0.270636 -1.519901,0.77181 0.900011,0.268228 2.423488,0.875694 2.291711,-0.764513 -0.27477,-0.02009 -0.532745,-0.023 -0.77181,-0.0073 z M 3.9895163,46.984352 c 0,1.694019 0.1327532,3.355017 0.3302545,4.995785 A 41.41312,41.41312 0 0 1 3.9895163,46.984352 Z m 0.3302545,4.995785 a 41.41312,41.41312 0 0 0 0.1751627,1.153154 C 4.4375268,52.748349 4.3665139,52.368461 4.3197708,51.980137 Z m 0.1751627,1.153154 c 0.2001636,1.34221 0.460774,2.660668 0.7864073,3.957581 A 41.41312,41.41312 0 0 1 4.4949335,53.133291 Z m 0.7864073,3.957581 a 41.41312,41.41312 0 0 0 0.2645686,1.023607 C 5.4515486,57.775751 5.3672531,57.433038 5.2813408,57.090872 Z m 0.2645686,1.023607 c 0.9220379,3.309855 2.2317102,6.450876 3.8991934,9.371201 A 41.41312,41.41312 0 0 1 5.5459094,58.114479 Z M 9.4451028,67.48568 A 41.41312,41.41312 0 0 0 9.779007,68.036713 C 9.6695663,67.851796 9.5517365,67.672432 9.4451028,67.48568 Z m 0.3339042,0.551033 c 0.769502,1.300195 1.608162,2.551329 2.510665,3.755049 A 41.41312,41.41312 0 0 1 9.779007,68.036713 Z m 2.510665,3.755049 a 41.41312,41.41312 0 0 0 0.470749,0.629491 C 12.599363,72.21469 12.446873,72.001431 12.289672,71.791762 Z m 0.470749,0.629491 c 2.114926,2.712477 4.554526,5.148458 7.26925,7.260126 a 41.41312,41.41312 0 0 1 -7.26925,-7.260126 z m 7.26925,7.260126 a 41.41312,41.41312 0 0 0 0.432433,0.321132 c -0.143176,-0.108423 -0.290719,-0.210898 -0.432433,-0.321132 z m 0.432433,0.321132 c 1.32601,1.004152 2.707204,1.932122 4.150989,2.773408 a 41.41312,41.41312 0 0 1 -4.150989,-2.773408 z m 4.150989,2.773408 a 41.41312,41.41312 0 0 0 0.131372,0.08029 c -0.04451,-0.02572 -0.08696,-0.05441 -0.131372,-0.08029 z m 0.131372,0.08029 c 3.062436,1.769208 6.369335,3.144427 9.862022,4.087129 a 41.41312,41.41312 0 0 1 -9.862022,-4.087129 z m 9.862022,4.087129 a 41.41312,41.41312 0 0 0 0.18976,0.04926 c -0.06311,-0.01671 -0.126773,-0.03227 -0.18976,-0.04926 z m 0.18976,0.04926 c 1.671593,0.44264 3.379728,0.788282 5.127156,1.019958 a 41.41312,41.41312 0 0 1 -5.127156,-1.019958 z m 5.127156,1.019958 a 41.41312,41.41312 0 0 0 0.113126,0.01642 c -0.03796,-0.005 -0.0752,-0.0114 -0.113126,-0.01642 z m 0.113126,0.01642 c 1.760654,0.228465 3.543322,0.386818 5.36618,0.386818 1.822068,0 3.6026,-0.158548 5.362532,-0.386818 a 41.41312,41.41312 0 0 1 -5.362532,0.35215 41.41312,41.41312 0 0 1 -5.36618,-0.35215 z m 10.728712,0 a 41.41312,41.41312 0 0 0 0.120425,-0.01825 c -0.04039,0.0053 -0.08,0.013 -0.120425,0.01825 z m 0.120425,-0.01825 c 1.744662,-0.231529 3.450788,-0.574471 5.119858,-1.016309 a 41.41312,41.41312 0 0 1 -5.119858,1.016309 z m 5.119858,-1.016309 a 41.41312,41.41312 0 0 0 0.197057,-0.05109 c -0.06543,0.01767 -0.1315,0.03373 -0.197057,0.05109 z m 0.197057,-0.05109 c 3.488783,-0.942056 6.791568,-2.316693 9.851075,-4.083478 a 41.41312,41.41312 0 0 1 -9.851075,4.08348 z m 9.851075,-4.083478 a 41.41312,41.41312 0 0 0 0.151442,-0.09123 c -0.05096,0.02972 -0.100343,0.06172 -0.151442,0.09123 z m 0.151442,-0.09123 c 1.438918,-0.839167 2.816352,-1.765123 4.138218,-2.76611 a 41.41312,41.41312 0 0 1 -4.138218,2.76611 z m 4.138218,-2.76611 a 41.41312,41.41312 0 0 0 0.432432,-0.321132 c -0.141717,0.110234 -0.289253,0.212709 -0.432432,0.321132 z m 0.432432,-0.321132 c 2.713537,-2.110687 5.151278,-4.54551 7.265601,-7.256477 a 41.41312,41.41312 0 0 1 -7.265601,7.256477 z M 78.041349,72.4249 a 41.41312,41.41312 0 0 0 0.481697,-0.644088 c -0.160832,0.214651 -0.316825,0.432692 -0.481697,0.644088 z m 0.481697,-0.644088 c 0.892558,-1.191231 1.720905,-2.42922 2.483296,-3.714907 a 41.41312,41.41312 0 0 1 -2.483296,3.714907 z m 2.483296,-3.714907 a 41.41312,41.41312 0 0 0 0.363097,-0.596648 c -0.115505,0.202505 -0.244294,0.396298 -0.363097,0.596648 z m 0.363097,-0.596648 c 1.660277,-2.910816 2.966345,-6.040797 3.886421,-9.338359 a 41.41312,41.41312 0 0 1 -3.886421,9.338359 z m 3.886421,-9.338359 a 41.41312,41.41312 0 0 0 0.270043,-1.054624 c -0.08834,0.352339 -0.17275,0.705929 -0.270043,1.054624 z m 0.270043,-1.054624 c 0.323997,-1.292306 0.585148,-2.605729 0.784583,-3.942984 a 41.41312,41.41312 0 0 1 -0.784583,3.942984 z m 0.784583,-3.942984 a 41.41312,41.41312 0 0 0 0.175163,-1.153154 c -0.04675,0.388323 -0.117754,0.768212 -0.175163,1.153154 z m 0.175163,-1.153154 c 0.19751,-1.640769 0.330254,-3.301767 0.330254,-4.995786 a 41.41312,41.41312 0 0 1 -0.330254,4.995786 z m -5.877072,11.942078 c -1.135528,2.390683 -3.249667,3.561845 -2.291712,6.499263 0.164488,-0.335517 0.331487,-0.667493 0.738968,-0.757213 0.01496,-0.0215 0.02701,-0.04424 0.04196,-0.06386 0.202808,-0.921507 0.717281,-1.530378 1.129435,-2.238798 -0.07851,-1.126182 1.511264,-2.531904 0.381344,-3.439391 z" /><circle
         style="opacity:1;fill:none;stroke:#000000;stroke-width:4.53337;stroke-dasharray:none;stroke-dashoffset:0;stroke-opacity:1"
         id="path72-6-9"
         cx="45.378502"
         cy="46.96106"
         r="40.926453" /><g
         id="g21"
         transform="matrix(2.3922689,0,0,2.2666841,71.30847,385.28428)"
         clip-path="url(#clipPath55)"><use
           x="0"
           y="0"
           xlink:href="#path6"
           id="use16"
           transform="matrix(0,-0.44117307,0.44117307,0,-5.5366076,-175.05221)" /><use
           x="0"
           y="0"
           xlink:href="#path6"
           id="use16-2"
           transform="matrix(0.20321652,-0.39265129,0.37203866,0.23891868,5.879644,-169.56693)" /><use
           x="0"
           y="0"
           xlink:href="#path6"
           id="use16-7"
           transform="matrix(0.37203859,-0.23891877,0.20321662,0.39265126,13.988769,-158.12175)" /><use
           x="0"
           y="0"
           xlink:href="#path6"
           id="use16-2-0"
           transform="matrix(0.44117307,0,0,0.44117307,14.954061,-143.0642)" /><use
           x="0"
           y="0"
           xlink:href="#path6"
           id="use16-0"
           transform="matrix(0.37203859,0.23891877,-0.20321662,0.39265126,7.8354708,-130.18502)" /><use
           x="0"
           y="0"
           xlink:href="#path6"
           id="use16-2-6"
           transform="matrix(0.2032167,0.39265119,-0.37203852,0.23891885,-3.7957132,-123.65435)"
           inkscape:transform-center-y="-1.0767835"
           inkscape:transform-center-x="-1.8654016" /><use
           x="0"
           y="0"
           xlink:href="#path6"
           id="use16-7-2"
           transform="matrix(0,0.44117307,-0.44117307,0,-16.14153,-123.46598)" /><use
           x="0"
           y="0"
           xlink:href="#path6"
           id="use16-2-0-6"
           transform="matrix(-0.2032152,0.39265215,-0.37203938,-0.23891728,-27.557674,-128.95121)"
           inkscape:transform-center-y="1.0795906"
           inkscape:transform-center-x="-1.8637651" /><use
           x="0"
           y="0"
           xlink:href="#path6"
           id="use16-9"
           transform="matrix(-0.37203823,0.23891945,-0.20321726,-0.39265083,-35.666863,-140.39642)" /><use
           x="0"
           y="0"
           xlink:href="#path6"
           id="use16-9-9"
           transform="matrix(-0.44117307,0,0,-0.44117307,-36.63219,-155.45398)" /><use
           x="0"
           y="0"
           xlink:href="#path6"
           id="use16-2-2"
           transform="matrix(-0.37203826,-0.23891941,0.20321722,-0.39265085,-29.513595,-168.3332)" /><use
           x="0"
           y="0"
           xlink:href="#path6"
           id="use16-7-0"
           transform="matrix(-0.20321798,-0.39265036,0.37203783,-0.23892021,-17.882485,-174.86378)" /></g><g
         id="g22"><path
           style="opacity:1;fill:#ffbb3b;fill-opacity:1;stroke:#ffbb3b;stroke-width:5.66671;stroke-linecap:round;stroke-miterlimit:4;stroke-dasharray:none;stroke-dashoffset:0;stroke-opacity:1"
           d="M 45.363534,46.982145 23.83653,33.996796"
           id="path21"
           sodipodi:nodetypes="cc"
           inkscape:transform-center-x="4.8988234"
           inkscape:transform-center-y="-3.6472714" /><path
           style="fill:#0a9396;fill-opacity:1;stroke:#ffbb3b;stroke-width:5.66671;stroke-linecap:round;stroke-dasharray:none;stroke-dashoffset:0;stroke-opacity:1"
           d="M 45.37053,46.959738 61.427667,37.221762"
           id="path21-7"
           sodipodi:nodetypes="cc"
           inkscape:transform-center-x="-4.008424"
           inkscape:transform-center-y="-2.3773277" /><circle
           style="fill:#05484a;fill-opacity:1;stroke:none;stroke-width:11.3334;stroke-dasharray:none;stroke-dashoffset:0;stroke-opacity:1"
           id="path79"
           cx="45.370529"
           cy="46.95974"
           r="5.6667099" /></g></g></g></svg>
