<?xml version="1.0" encoding="UTF-8" standalone="no"?>
<svg
   version="1.1"
   x="0px"
   y="0px"
   viewBox="4.106 5.67 99.999998 68.028813"
   enable-background="new 4.106 5.67 88.622 88.66"
   xml:space="preserve"
   id="svg1"
   width="100"
   height="68.028816"
   xmlns="http://www.w3.org/2000/svg"
   xmlns:svg="http://www.w3.org/2000/svg"><defs
     id="defs1" /><g
     id="g77"
     transform="translate(125.93364,12.442084)"><g
       id="g6-0-8"
       style="fill:#ffd588;fill-opacity:1"
       transform="matrix(0.20408122,0,0,0.20408122,-121.82819,-22.75682)">
	<path
   d="m 376.577,78.33 c -3.041,0 -6.075,0.369 -9.017,1.098 -0.971,0.24 -1.704,1.037 -1.864,2.023 -0.16,0.986 0.286,1.975 1.132,2.508 9.49,5.988 15.156,16.252 15.156,27.455 0,14.953 -10.124,27.9 -24.621,31.488 -0.971,0.238 -1.704,1.035 -1.864,2.023 -0.159,0.986 0.286,1.975 1.132,2.508 5.966,3.764 12.863,5.754 19.945,5.754 20.638,0 37.428,-16.791 37.428,-37.428 10e-4,-20.638 -16.79,-37.429 -37.427,-37.429 z"
   id="path1-9-9"
   style="fill:#8ef5f7;fill-opacity:1" />
	<g
   id="g5-3-7"
   style="fill:#ffd588;fill-opacity:1">
		<path
   d="m 111.525,171.018 -7.695,-0.844 -4.874,-6.014 c -0.363,-0.449 -0.935,-0.676 -1.505,-0.604 -0.572,0.074 -1.065,0.441 -1.303,0.967 l -3.181,7.057 -7.226,2.777 c -0.539,0.207 -0.932,0.68 -1.038,1.246 -0.106,0.568 0.089,1.15 0.516,1.537 l 5.729,5.207 0.409,7.73 c 0.031,0.576 0.358,1.096 0.864,1.373 0.248,0.135 0.522,0.203 0.797,0.203 0.285,0 0.569,-0.074 0.825,-0.221 l 6.722,-3.84 7.478,2.002 c 0.559,0.148 1.153,-0.002 1.572,-0.398 0.42,-0.396 0.604,-0.982 0.486,-1.547 l -1.574,-7.58 4.213,-6.494 c 0.315,-0.484 0.355,-1.096 0.108,-1.617 -0.249,-0.52 -0.749,-0.876 -1.323,-0.94 z"
   id="path2-3-6-3"
   style="fill:#ffd588;fill-opacity:1" />
		<g
   id="g4-0-6"
   style="fill:#ffd588;fill-opacity:1">
			<path
   d="m 156.626,123.135 c -0.248,-0.521 -0.748,-0.877 -1.321,-0.939 l -7.695,-0.844 -4.874,-6.016 c -0.364,-0.447 -0.935,-0.674 -1.506,-0.601 -0.572,0.074 -1.066,0.439 -1.303,0.967 l -3.181,7.057 -7.226,2.777 c -0.539,0.207 -0.932,0.678 -1.038,1.246 -0.106,0.566 0.089,1.148 0.516,1.537 l 5.729,5.207 0.408,7.73 c 0.031,0.576 0.358,1.096 0.864,1.371 0.249,0.137 0.523,0.203 0.796,0.203 0.285,0 0.57,-0.072 0.825,-0.219 l 6.722,-3.84 7.478,2.002 c 0.559,0.148 1.153,-0.002 1.572,-0.398 0.419,-0.396 0.604,-0.982 0.486,-1.547 l -1.575,-7.58 4.213,-6.494 c 0.316,-0.484 0.357,-1.097 0.11,-1.619 z"
   id="path3-6-1"
   style="fill:#ffd588;fill-opacity:1" />
			<path
   d="m 67.747,122.196 -7.695,-0.844 -4.874,-6.014 c -0.364,-0.449 -0.933,-0.678 -1.506,-0.604 -0.572,0.074 -1.066,0.439 -1.303,0.967 l -3.181,7.057 -7.226,2.777 c -0.539,0.207 -0.932,0.678 -1.039,1.246 -0.106,0.566 0.089,1.148 0.517,1.537 l 5.729,5.207 0.408,7.73 c 0.031,0.576 0.358,1.096 0.865,1.371 0.248,0.137 0.522,0.203 0.796,0.203 0.285,0 0.569,-0.072 0.825,-0.219 l 6.722,-3.84 7.478,2.002 c 0.559,0.148 1.153,-0.002 1.572,-0.398 0.42,-0.396 0.604,-0.982 0.486,-1.547 l -1.575,-7.58 4.214,-6.494 c 0.314,-0.484 0.355,-1.096 0.107,-1.619 -0.247,-0.518 -0.747,-0.876 -1.32,-0.938 z"
   id="path4-2-2"
   style="fill:#ffd588;fill-opacity:1" />
		</g>
	</g>
	<path
   id="path5-6-9"
   style="fill:#ffd588;fill-opacity:1"
   d="M 245.00319,120.00178 219.50783,81.318504 c -2.021,-3.068 -6.14923,-3.915926 -9.21623,-1.894926 -3.068,2.021 -3.91693,6.14923 -1.89493,9.21623 L 236.1315,130.73013 50.476628,391.71308 H 9.9749834 c -5.511,0 -9.97228582,4.46985 -9.97228582,9.98185 0,5.512 4.46128582,9.97229 9.97228582,9.97229 H 245.00319 v -19.95414 h -51.69893 l 51.69893,-130.5489 z" /><path
   id="path76-3"
   style="fill:#8ef5f7;fill-opacity:1"
   d="m 245.00319,120.00178 v 141.1624 l 51.68937,130.5489 h -51.68937 v 19.95414 h 235.01864 c 5.511,0 9.98186,-4.46129 9.98186,-9.97229 -0.001,-5.512 -4.47086,-9.98185 -9.98186,-9.98185 H 439.52019 L 253.86532,130.73013 281.60014,88.639808 c 2.021,-3.066 1.17308,-7.19423 -1.89492,-9.21623 -3.067,-2.021 -7.19423,-1.174074 -9.21623,1.894926 z" />
</g><g
       id="g76"
       transform="matrix(0.44117307,0,0,0.44117307,-94.155893,17.23302)"><path
         id="path2"
         style="opacity:1;fill:#4d4d4d;fill-opacity:1;stroke-width:4.433;stroke-dasharray:26.598, 26.598"
         d="M 48.436078,5.67 A 44.33,44.33 0 0 0 43.617719,5.935625 C 45.200415,5.7636671 46.807477,5.67 48.436078,5.67 Z M 43.617719,5.935625 C 42.453514,6.0621143 41.319407,6.2810581 40.184125,6.4961719 A 44.33,44.33 0 0 1 43.617719,5.935625 Z M 40.184125,6.4961719 A 44.33,44.33 0 0 0 38.9185,6.7051562 c 0.414464,-0.091046 0.846904,-0.1296449 1.265625,-0.2089843 z M 38.9185,6.7051562 c -1.361192,0.299017 -2.688737,0.6845203 -4,1.1054688 a 44.33,44.33 0 0 1 4,-1.1054688 z m -4,1.1054688 A 44.33,44.33 0 0 0 34.322797,7.9766406 C 34.517059,7.9112721 34.72305,7.8733695 34.9185,7.810625 Z M 34.322797,7.9766406 C 32.810172,8.4856326 31.332192,9.0702866 29.897016,9.7325 A 44.33,44.33 0 0 1 34.322797,7.9766406 Z M 48.482953,5.67 a 44.33,44.33 0 0 1 5.013672,0.3203125 C 51.847885,5.8024712 50.181504,5.6717834 48.482953,5.67 Z m 5.013672,0.3203125 c 0.324349,0.036953 0.648518,0.073269 0.970703,0.1171875 A 44.33,44.33 0 0 0 53.496625,5.9903125 Z M 54.467328,6.1075 a 44.33,44.33 0 0 1 4.947266,0.9472656 C 57.800276,6.6430459 56.146976,6.3364585 54.467328,6.1075 Z m 4.947266,0.9472656 c 0.0838,0.021372 0.164442,0.050417 0.248047,0.072266 a 44.33,44.33 0 0 0 -0.248047,-0.072266 z m 0.248047,0.072266 A 44.33,44.33 0 0 1 63.44975,8.3594531 C 62.203512,7.9095349 60.957898,7.4655222 59.662641,7.1270316 Z m 3.787109,1.2324219 c 1.301053,0.4697077 2.563416,1.0148131 3.804687,1.5996094 A 44.33,44.33 0 0 0 63.44975,8.3594535 Z m 3.804687,1.5996094 a 44.33,44.33 0 0 1 1.951172,0.9179681 C 68.571636,10.539568 67.906261,10.266154 67.254437,9.9590629 Z m 1.951172,0.9179681 c 1.831298,0.974797 3.610241,2.038993 5.277344,3.251953 a 44.33,44.33 0 0 0 -5.277344,-3.251953 z m 5.277344,3.251953 a 44.33,44.33 0 0 1 3.628906,2.980469 c -1.162096,-1.049514 -2.360152,-2.057341 -3.628906,-2.980469 z m 3.628906,2.980469 c 0.380078,0.343256 0.743369,0.70448 1.111328,1.060547 A 44.33,44.33 0 0 0 78.111859,17.109453 Z M 79.223187,18.17 a 44.33,44.33 0 0 1 2.310547,2.410156 C 80.793235,19.747553 80.023662,18.944603 79.223187,18.17 Z m 2.310547,2.410156 c 0.340072,0.38237 0.68485,0.760249 1.011719,1.154297 a 44.33,44.33 0 0 0 -1.011719,-1.154297 z m 1.011719,1.154297 a 44.33,44.33 0 0 1 2.826172,3.753906 c -0.869619,-1.307848 -1.826431,-2.548694 -2.826172,-3.753906 z m 2.826172,3.753906 a 44.33,44.33 0 0 1 2.972656,5.214844 c -0.87676,-1.80968 -1.86743,-3.55266 -2.972656,-5.214844 z m 2.972656,5.214844 c 0.06349,0.131036 0.103787,0.274499 0.166016,0.40625 a 44.33,44.33 0 0 0 -0.166016,-0.40625 z m 0.166016,0.40625 a 44.33,44.33 0 0 1 2.068359,5.146485 c -0.577451,-1.770757 -1.28198,-3.481567 -2.068359,-5.146485 z m 2.068359,5.146485 c 0.156756,0.480691 0.238282,0.992712 0.378906,1.480468 a 44.33,44.33 0 0 0 -0.378906,-1.480468 z m 0.378906,1.480468 a 44.33,44.33 0 0 1 1.09375,4.345703 c -0.268316,-1.485216 -0.681522,-2.915895 -1.09375,-4.345703 z m 1.09375,4.345703 c 0.355155,1.965892 0.586891,3.974601 0.673829,6.021485 A 44.33,44.33 0 0 0 92.051312,42.082109 Z M 48.432172,6.5645312 c -3.861612,0 -7.603482,0.5125894 -11.167969,1.4589844 0.05902,-0.007 0.109949,-0.02325 0.167969,-0.03125 0.150062,1.3765745 -1.772793,0.6832882 -2.455078,1.2285156 1.047437,3.1173008 7.647316,1.5238108 5.728515,6.9550778 0.07203,0.369154 0.452879,0.418642 0.667969,0.267579 0.04502,-0.09504 0.09346,-0.184642 0.146485,-0.263672 -0.002,0.117049 -0.06245,0.202641 -0.146485,0.263672 -0.878366,1.848771 -0.313749,6.667461 2.605469,7.507812 1.164486,-0.744311 1.570709,-2.25001 2.455078,-3.273437 1.823761,-2.677118 6.023662,-2.978366 9.003906,-4.5 -2.008838,-1.523636 1.404586,-3.099401 0,-4.910157 0.178074,-0.606253 0.52327,0.161067 1.226563,0 0.01,-0.963402 -0.703374,-1.204556 -0.40625,-2.4550779 0.855357,-0.1020426 1.033084,-0.8863743 1.693359,-1.1875 -0.674281,-0.151063 -1.352775,-0.2852472 -2.039062,-0.4042969 -0.321134,0.011004 -0.626659,0.0081 -0.884766,-0.044922 0.03501,-0.038016 0.04721,-0.064594 0.07422,-0.099609 -2.174909,-0.3351401 -4.400977,-0.511719 -6.669923,-0.511719 z m -13.644531,2.203125 c -2.082869,0.6892877 -4.093633,1.5312618 -6.023438,2.5136718 0.537224,0.02902 1.174761,-0.04177 1.708985,-0.0098 -0.93439,0.815341 -1.620874,0.658785 -2.449219,0.388672 -0.451189,0.2401 -0.894706,0.493845 -1.337891,0.751953 1.207504,0.460197 2.697577,0.272016 4.609375,0.08594 0.856357,-1.550647 1.905526,-2.909126 3.492188,-3.7304688 z m -5.138672,1.0234375 c -0.576241,0.2681123 -1.147655,0.5486753 -1.712891,0.8417973 0.02619,0.0081 0.05749,0.01187 0.08594,0.01758 a 44.33,44.33 0 0 1 1.611328,-0.7949221 c 0.004,-0.021882 0.01363,-0.041548 0.01563,-0.064453 z m -1.626953,0.8593753 a 44.33,44.33 0 0 0 -0.306641,0.160156 c 6.79e-4,10e-4 0.0013,0.0028 0.002,0.0039 0.103043,-0.05602 0.21041,-0.107089 0.314453,-0.162109 -0.003,-6.82e-4 -0.0067,-0.0013 -0.0098,-0.002 z m -0.306641,0.160156 c -0.0098,-0.01511 -0.02377,-0.02511 -0.03125,-0.04102 -0.327136,0.172072 -0.653475,0.343363 -0.974609,0.523438 0.02872,0.0054 0.05648,0.01365 0.08398,0.01953 A 44.33,44.33 0 0 1 27.715371,10.81062 Z M 26.7935,11.312578 a 44.33,44.33 0 0 0 -1.013672,0.583984 c 0.0013,9.47e-4 0.0026,0.0029 0.0039,0.0039 0.33614,-0.200084 0.677389,-0.394859 1.019532,-0.585938 -0.0032,-6.16e-4 -0.0066,-0.0013 -0.0098,-0.002 z m -1.013672,0.583984 c -0.01671,-0.01227 -0.03304,-0.01927 -0.04883,-0.0332 0.156095,-0.09153 0.309481,-0.186469 0.464844,-0.277343 -0.158483,0.09137 -0.317626,0.184157 -0.47461,0.277343 l 0.002,0.002 c -0.08003,0.04802 -0.160201,0.09651 -0.240235,0.144532 0.03626,-0.0039 0.05701,0.0083 0.08789,0.01172 a 44.33,44.33 0 0 1 0.208984,-0.125 z m -0.208984,0.125 a 44.33,44.33 0 0 0 -0.507813,0.310547 c -0.0011,0.0035 -0.0027,0.0062 -0.0039,0.0098 0.171071,-0.106045 0.3406,-0.214315 0.513672,-0.318359 z m -0.507813,0.310547 c 0.01,-0.03079 0.01762,-0.05946 0.0293,-0.0918 h -0.002 v -0.002 c -0.02329,0.01503 -0.04742,0.03156 -0.07227,0.04687 0.01039,-0.006 0.0221,-0.01147 0.0332,-0.01758 -0.06803,0.04302 -0.138003,0.08589 -0.207032,0.128906 0.02101,-0.01401 0.03954,-0.02801 0.06055,-0.04101 -0.194081,0.12005 -0.389951,0.241182 -0.582031,0.365234 0.128054,-0.08203 0.259618,-0.161201 0.388672,-0.240234 -0.129054,0.08203 -0.257665,0.165965 -0.386719,0.25 0,0.02018 0.0041,0.04451 0.0059,0.06641 a 44.33,44.33 0 0 1 0.732422,-0.464844 z m -0.732422,0.464844 a 44.33,44.33 0 0 0 -0.04101,0.02734 c 0.0017,0.0031 0.002,0.0048 0.0039,0.0078 0.01301,-0.008 0.0251,-0.01544 0.03711,-0.02344 -1.59e-4,-0.004 3.27e-4,-0.0076 0,-0.01172 z m -0.04101,0.02734 c -0.0093,-0.01664 -0.01667,-0.03451 -0.0293,-0.04883 0.02101,-0.01401 0.03955,-0.02896 0.06055,-0.04297 l 0.002,-0.002 v -0.002 -0.002 l -0.002,-0.002 v -0.002 c -0.02257,0.01472 -0.04481,0.03117 -0.06836,0.04687 v 0.002 h 0.002 c 3.74e-4,7.5e-4 -2.82e-4,0.005 0,0.0059 -1.219509,0.79033 -2.399731,1.634684 -3.533204,2.539062 0.0075,0.02173 0.01981,0.0424 0.0293,0.0625 a 44.33,44.33 0 0 1 3.539063,-2.554687 z M 20.750536,15.37898 A 44.33,44.33 0 0 0 8.7036562,30.341875 C 11.594623,24.516942 15.728302,19.418736 20.756391,15.390703 c -0.0016,-0.0039 -0.004,-0.0078 -0.0059,-0.01172 z M 8.7036562,30.341875 C 7.8882595,31.984797 7.2080099,33.702511 6.5981875,35.453203 A 44.33,44.33 0 0 1 8.7036562,30.341875 Z M 6.5981875,35.453203 A 44.33,44.33 0 0 0 6.1587344,36.839922 C 6.3031655,36.37652 6.4390933,35.909935 6.5981875,35.453203 Z M 6.1587344,36.839922 C 5.7370113,38.193006 5.3824412,39.571274 5.090375,40.976641 A 44.33,44.33 0 0 1 6.1587344,36.839922 Z M 5.090375,40.976641 A 44.33,44.33 0 0 0 4.7895937,42.431719 C 4.8743686,41.941206 4.989615,41.461479 5.090375,40.976641 Z M 4.7895937,42.431719 C 4.4765033,44.243281 4.2388427,46.079087 4.152875,47.959063 A 44.33,44.33 0 0 1 4.7895937,42.431719 Z M 26.061078,12.771562 c -0.412172,0.247104 -0.815582,0.510376 -1.21875,0.771485 -0.06803,0.283118 -0.199779,0.59788 -0.503906,0.998047 1.214507,-0.150062 2.019896,-0.709332 2.455078,-1.636719 -0.467195,0.179075 -0.640382,0.06427 -0.732422,-0.132813 z m 5.234375,0.136719 c -1.455607,0.86336 -4.851183,-0.218022 -4.908203,2.044922 -0.308128,1.398584 1.661745,0.521238 1.226563,2.046875 -0.364152,0.179075 -0.73132,0.357215 -0.81836,0.816406 -0.518216,-1.58266 -1.844839,-0.531307 -2.044922,-2.863281 -0.662277,-0.116048 -0.706297,0.388146 -1.228515,0.410156 -0.339142,1.154482 0.576273,1.058558 0.408203,2.042969 -1.639563,-2.03673 -1.756349,1.205009 -4.480469,0.414063 -5.655522,5.09826 -10.043731,11.577697 -12.4101563,19.009765 0.1210505,4.163737 1.157671,8.550871 4.0058593,11.332032 -0.06903,-1.145479 -0.742517,-1.685553 -0.810547,-2.832032 1.312547,0.844353 2.141487,2.175223 2.023438,4.451172 4.220761,3.059277 10.001084,4.562629 12.945312,8.898438 -0.444185,1.174491 -1.294132,1.944613 -2.023437,2.833984 -1.144477,5.396252 5.30504,8.008124 6.068359,12.541016 0.980409,5.817428 -1.735006,11.7042 -0.111328,14.894531 1.023427,0.507212 2.067368,0.972212 3.132813,1.400391 0.671279,-3.328389 -0.261062,-5.878006 3.929687,-7.0625 0.340142,-1.158484 -0.575272,-1.060463 -0.408203,-2.046875 2.354983,0.623259 4.122795,-2.628238 4.501953,-5.31836 1.097458,-0.537225 2.174931,-1.097494 3.275391,-1.636719 -0.05602,-4.282787 2.476167,-5.97666 2.861328,-9.822265 -2.694124,-0.985411 -4.850218,-2.511168 -7.773438,-3.271485 v -2.044921 c -1.636683,-1.500626 -4.744119,-1.530681 -5.318359,-4.09375 -2.676116,-0.02801 -4.401977,-0.378161 -5.318359,-1.228516 -1.525638,0.248104 -1.666768,1.880806 -3.273438,2.046875 -0.01,-0.398171 -0.502179,-0.318116 -0.820312,-0.410156 -2.095875,-0.301126 -1.341611,-1.868885 -1.226563,-3.681641 -0.594248,-0.222093 -2.113952,0.479216 -2.044922,-0.410156 -0.06203,-1.015423 0.210153,-1.696776 0.816406,-2.044922 -0.208087,-1.423594 -2.601187,-0.887385 -2.453125,0.410156 h -0.410156 c -6.375661,-1.475616 0.371244,-8.297573 4.091797,-6.138672 0.315131,1.185495 0.647306,2.351068 1.636719,2.863282 1.219509,-0.821343 -0.455253,-3.316488 0.412109,-3.681641 0.525219,-0.701292 0.843468,-1.610709 2.042969,-1.636719 0.754314,-4.654942 5.829579,-6.106709 7.775391,-7.365234 v -0.410156 c -0.009,-0.398172 -0.501228,-0.317164 -0.81836,-0.408204 -0.250104,-0.02301 -0.484233,-0.06201 -0.408203,-0.410156 -0.16707,-0.985412 0.746344,-0.88944 0.408203,-2.044922 1.319551,1.720718 2.549154,-0.430197 4.091797,-0.818359 -0.230096,0.589246 -0.640271,0.99942 -1.228516,1.228516 -0.289121,0.303126 -1.02044,2.001871 0.410157,1.636718 0.963402,-0.01 1.204556,0.704326 2.455078,0.408203 -0.584244,-3.647523 -2.810263,-5.592515 -4.091797,-9.412109 -1.325554,-0.504211 -0.314119,1.326524 -1.638672,0.820313 -1.41459,0.05102 -0.595332,-2.132897 -1.634766,-2.457032 -1.483619,0.26311 -2.054864,-0.851426 -2.457031,-0.816406 -0.02201,0.249104 -0.06006,0.482233 -0.408203,0.408203 0.140059,5.332225 -1.059495,4.486018 -2.455078,7.775391 0.01,-0.964403 -0.704327,-1.203555 -0.408203,-2.455078 -0.563235,0.01901 -0.900331,-0.191112 -1.230469,-0.408203 -1.36457,-0.543227 -2.920337,-0.896428 -3.271484,-2.455079 1.1985,-1.392581 2.151034,-3.033322 4.089843,-3.683593 -0.306127,1.038433 1.564642,1.919803 1.638672,1.228515 -0.412172,-0.004 -0.515215,-0.716316 0,-0.818359 0.564235,-0.01701 0.899379,0.192113 1.228516,0.408203 0.06903,-1.023427 -0.628266,-1.281571 -1.228516,-1.636719 0.463193,-1.037433 1.972859,-1.028515 1.636719,-2.863281 -1.303544,-0.564236 1.446624,-0.406156 2.046875,-0.410156 -0.307128,1.260526 1.122486,0.784396 0.818359,2.044922 -0.09704,1.26853 -1.452612,1.278569 -2.457031,1.636718 1.79775,0.522218 2.974316,1.663749 4.501953,2.455079 0.997416,-0.768321 -0.800331,-1.483686 1.228516,-0.816407 0.06203,-1.015424 0.07897,-1.986855 -0.816406,-2.046875 0.402168,-1.255524 1.091539,0.470233 1.634765,0.408203 0.417175,-0.26411 0.426133,-0.939457 1.230469,-0.816406 -2.435017,-2.130889 -2.370131,-5.240246 -6.546875,-4.912109 -1.323552,-0.471201 1.099495,-0.461223 1.636719,-0.408203 -0.09304,-0.589246 -1.221516,-0.142078 -1.228516,-0.81836 z m -9.966797,3.169922 c -0.555931,0.444997 -1.031307,0.978017 -1.564453,1.449219 0.635455,-0.384494 1.63034,-0.410388 1.710938,-1.347656 -0.05002,-0.03001 -0.09746,-0.06755 -0.146485,-0.101563 z m 52.933594,0.513672 c -4.411841,0.497208 -5.186358,4.633109 -7.773438,6.955078 0.568238,0.525219 0.250123,1.932812 0.81836,2.457031 0.475198,-0.345141 1.095526,-0.54021 2.044922,-0.410156 0.334139,0.297124 1.098425,2.831235 -0.408203,2.455078 -0.133056,-0.948395 0.06406,-1.569724 0.408203,-2.044922 -2.139893,1.542644 -2.241061,5.125279 -5.728516,5.31836 0.125052,0.944394 -1.185449,0.456193 -1.230469,1.228515 0.420175,0.942393 1.412545,1.319638 1.230469,2.863282 h -0.410156 c -0.375157,1.115466 -1.278587,-0.570238 -2.455078,0 -1.276534,0.224094 -0.626264,2.375062 -1.228516,3.273437 -0.113047,0.663277 0.388193,0.706298 0.408203,1.228516 h 3.685547 c 0.08604,-0.457191 0.455255,-0.63333 0.816406,-0.816406 v -1.636719 c 1.287537,-0.62326 2.229987,-1.593686 3.683594,-2.046875 0.556232,0.127053 0.340126,1.024462 0.410156,1.636719 0.397166,-1.664695 4.956137,1.975878 2.044922,2.455078 1.308546,1.544645 1.64382,-1.327605 2.861328,-1.226563 0.175073,0.780326 1.170507,0.738377 0.81836,2.044922 h 0.818359 c 1.623678,-0.4802 -0.560165,-2.645157 2.044922,-2.455078 -0.559233,0.523218 -0.559233,1.93286 0,2.455078 1.166487,0.608254 3.310391,0.240136 3.685547,1.636719 -0.226094,0.729304 -0.211107,1.69973 -0.81836,2.046875 -0.05102,-0.904378 -1.735778,-0.176058 -2.455078,-0.410156 -1.924804,0.689288 -1.61476,-0.435185 -2.863281,-1.228516 -0.598249,0.356149 -1.298499,0.612292 -1.230469,1.636719 -1.315549,-0.592247 -2.07597,-1.738795 -3.68164,-2.044922 V 40.32625 c -3.1143,-1.138475 -10.857764,-0.367031 -10.638672,4.5 -4.5529,1.65369 -2.304018,5.855658 -3.683594,9.820313 1.510631,1.352565 2.249028,3.478574 4.091797,4.5 2.569072,-0.297124 4.404966,0.06301 6.957031,-0.81836 -0.101042,1.332556 1.495692,0.960389 2.044922,1.638672 -0.291122,4.904047 3.544498,7.52944 0.818359,11.455078 1.31655,2.774158 1.360575,6.825063 2.457032,9.820313 6.617762,0.967404 6.887139,-7.795533 11.046875,-10.636719 0.21709,-3.009256 0.102042,-3.846733 0,-6.957031 2.017842,-2.486037 4.916191,-4.083835 5.318359,-8.185547 -0.931389,-0.926386 -2.544132,1.285504 -3.273437,-0.408203 2.392999,-1.623678 7.899436,-3.352561 5.318359,-7.365235 h 1.589844 C 91.269995,37.57631 87.274483,28.384674 80.986859,21.265703 c -0.435182,0.40817 -0.916017,0.780602 -0.998047,0.234375 -0.928387,0.965402 -1.222545,-0.511263 -1.636718,-1.226562 0.986411,-0.16807 0.888392,0.746344 2.046875,0.408203 -0.04102,-0.07703 -0.09365,-0.14372 -0.138672,-0.21875 -0.795332,-0.856357 -1.620206,-1.683374 -2.476563,-2.470703 -1.018425,-0.62326 -2.204935,-1.077256 -3.521484,-1.400391 z m -20.466797,2.455078 c -0.01701,1.24552 0.869318,1.590717 1.230469,2.455078 1.674699,0.03902 3.215464,-0.05801 3.271484,-1.638672 0.004,-0.40917 -0.330173,-0.485267 -0.408203,-0.816406 -1.635682,0.401168 -2.456067,0.401168 -4.09375,0 z m -3.503906,2.080078 c -1.699719,0.0544 -3.682456,1.653686 -3.451172,4.466797 0.252106,0.566237 1.576642,0.06204 1.638672,0.81836 -0.229096,-0.002 -0.464194,0.332173 0,0.408203 1.467612,-0.850355 3.462582,-1.172576 4.089844,-2.863282 0.195644,-1.979638 -0.955341,-2.872389 -2.277344,-2.830078 z m 11.6875,4.056641 c -0.879367,2.160902 1.249441,3.961764 -0.40625,6.138672 0.733306,0.05102 0.861443,-0.500243 1.634766,-0.408203 1.156482,0.338141 1.062464,-0.577227 2.046874,-0.410157 v -0.818359 c -1.732722,-0.857358 -1.1435,-4.042762 -3.27539,-4.501953 z m -0.816406,2.455078 c -1.309546,0.05402 -1.798787,0.929442 -1.636719,2.455078 h 2.046875 c 0.05302,-1.00742 0.06204,-1.970876 -0.410156,-2.455078 z M 23.383344,47.468828 c -0.433587,0.0023 -0.814682,0.18197 -1.091797,0.628906 2.351981,-0.171071 2.682227,1.681692 4.910156,1.638672 -0.756315,-0.692538 -2.517598,-2.274518 -3.818359,-2.267578 z m 5.445312,2.257813 c -0.767711,0.05041 -1.345585,0.289698 -1.626953,0.826172 0.963402,0.28712 2.594183,0.937372 2.453125,-0.81836 -0.294123,-0.02151 -0.570268,-0.02462 -0.826172,-0.0078 z M 4.106,50.017656 c 0,1.813335 0.1421035,3.591323 0.3535156,5.347657 A 44.33,44.33 0 0 1 4.106,50.017656 Z m 0.3535156,5.347657 a 44.33,44.33 0 0 0 0.1875,1.234375 c -0.06145,-0.412055 -0.1374646,-0.8187 -0.1875,-1.234375 z m 0.1875,1.234375 c 0.2142619,1.436746 0.493228,2.848068 0.8417969,4.236328 A 44.33,44.33 0 0 1 4.6470156,56.599688 Z m 0.8417969,4.236328 a 44.33,44.33 0 0 0 0.2832031,1.095703 C 5.6710087,61.569133 5.5807759,61.202282 5.4888125,60.836016 Z m 0.2832031,1.095703 c 0.9869805,3.54298 2.3888979,6.905235 4.1738281,10.03125 A 44.33,44.33 0 0 1 5.7720156,61.931719 Z m 4.1738281,10.03125 a 44.33,44.33 0 0 0 0.3574223,0.589844 C 10.186117,72.354871 10.059988,72.162874 9.9458437,71.962969 Z m 0.3574223,0.589844 c 0.823701,1.391772 1.721431,2.731028 2.6875,4.019531 a 44.33,44.33 0 0 1 -2.6875,-4.019531 z m 2.6875,4.019531 a 44.33,44.33 0 0 0 0.503906,0.673828 C 13.32227,77.02506 13.15904,76.796781 12.990766,76.572344 Z m 0.503906,0.673828 c 2.263888,2.903527 4.875318,5.511083 7.78125,7.771484 a 44.33,44.33 0 0 1 -7.78125,-7.771484 z m 7.78125,7.771484 a 44.33,44.33 0 0 0 0.462891,0.34375 c -0.15326,-0.116059 -0.311195,-0.225752 -0.462891,-0.34375 z m 0.462891,0.34375 c 1.419406,1.074879 2.897883,2.068209 4.443359,2.96875 a 44.33,44.33 0 0 1 -4.443359,-2.96875 z m 4.443359,2.96875 a 44.33,44.33 0 0 0 0.140625,0.08594 c -0.04765,-0.02753 -0.09309,-0.05824 -0.140625,-0.08594 z m 0.140625,0.08594 c 3.278134,1.893819 6.817951,3.3659 10.556641,4.375 a 44.33,44.33 0 0 1 -10.556641,-4.375 z m 10.556641,4.375 a 44.33,44.33 0 0 0 0.203125,0.05273 c -0.06755,-0.01789 -0.135702,-0.03454 -0.203125,-0.05273 z m 0.203125,0.05273 c 1.789329,0.473817 3.617775,0.843803 5.488281,1.091797 a 44.33,44.33 0 0 1 -5.488281,-1.091797 z m 5.488281,1.091797 a 44.33,44.33 0 0 0 0.121094,0.01758 c -0.04063,-0.0053 -0.0805,-0.0122 -0.121094,-0.01758 z m 0.121094,0.01758 c 1.884663,0.244557 3.792891,0.414063 5.74414,0.414063 1.950403,0 3.856344,-0.169715 5.740235,-0.414063 a 44.33,44.33 0 0 1 -5.740235,0.376953 44.33,44.33 0 0 1 -5.74414,-0.376953 z m 11.484375,0 a 44.33,44.33 0 0 0 0.128906,-0.01953 c -0.04323,0.0057 -0.08564,0.01392 -0.128906,0.01953 z m 0.128906,-0.01953 c 1.867546,-0.247837 3.69384,-0.614933 5.480469,-1.087891 a 44.33,44.33 0 0 1 -5.480469,1.087891 z m 5.480469,-1.087891 a 44.33,44.33 0 0 0 0.210937,-0.05469 c -0.07004,0.01891 -0.140762,0.03611 -0.210937,0.05469 z m 0.210937,-0.05469 C 63.731135,91.782683 67.266548,90.311226 70.541547,88.42 A 44.33,44.33 0 0 1 59.996625,92.791094 Z M 70.541547,88.42 a 44.33,44.33 0 0 0 0.162109,-0.09766 c -0.05455,0.03181 -0.107411,0.06607 -0.162109,0.09766 z m 0.162109,-0.09766 c 1.540266,-0.898273 3.014718,-1.889448 4.429688,-2.960938 a 44.33,44.33 0 0 1 -4.429688,2.960938 z m 4.429688,-2.960938 a 44.33,44.33 0 0 0 0.46289,-0.34375 c -0.151699,0.117998 -0.309626,0.227691 -0.46289,0.34375 z m 0.46289,-0.34375 c 2.904661,-2.259351 5.514101,-4.865668 7.777344,-7.767578 a 44.33,44.33 0 0 1 -7.777344,7.767578 z m 7.777344,-7.767578 a 44.33,44.33 0 0 0 0.515625,-0.689453 c -0.17216,0.229769 -0.339141,0.463168 -0.515625,0.689453 z m 0.515625,-0.689453 c 0.955424,-1.275134 1.842114,-2.600319 2.658203,-3.976562 a 44.33,44.33 0 0 1 -2.658203,3.976562 z m 2.658203,-3.976562 a 44.33,44.33 0 0 0 0.388672,-0.638672 c -0.123641,0.216768 -0.261501,0.424211 -0.388672,0.638672 z m 0.388672,-0.638672 c 1.777216,-3.115836 3.175275,-6.466273 4.160156,-9.996094 a 44.33,44.33 0 0 1 -4.160156,9.996094 z m 4.160156,-9.996094 a 44.33,44.33 0 0 0 0.289063,-1.128906 c -0.09456,0.377156 -0.184918,0.755651 -0.289063,1.128906 z m 0.289063,-1.128906 c 0.346817,-1.383327 0.626362,-2.78926 0.839844,-4.220703 a 44.33,44.33 0 0 1 -0.839844,4.220703 z m 0.839844,-4.220703 a 44.33,44.33 0 0 0 0.1875,-1.234375 c -0.05004,0.415675 -0.126048,0.82232 -0.1875,1.234375 z m 0.1875,-1.234375 c 0.211422,-1.756334 0.353515,-3.534322 0.353515,-5.347657 a 44.33,44.33 0 0 1 -0.353515,5.347657 z m -6.291016,12.783203 c -1.215507,2.559068 -3.478553,3.812719 -2.453125,6.957031 0.176073,-0.359149 0.354834,-0.714507 0.791016,-0.810547 0.01601,-0.02301 0.02891,-0.04735 0.04492,-0.06836 0.217092,-0.986412 0.767801,-1.638168 1.208985,-2.396485 -0.08404,-1.205503 1.617708,-2.710235 0.408203,-3.68164 z" /><circle
         style="opacity:1;fill:none;stroke:#4d4d4d;stroke-width:3;stroke-dasharray:none;stroke-dashoffset:0;stroke-opacity:1"
         id="path72"
         cx="48.436077"
         cy="50.018635"
         r="43.833683" /></g></g></svg>
